<svg xmlns="http://www.w3.org/2000/svg" width="124" height="104.557" viewBox="0 0 124 104.557">
  <g id="Group_5597" data-name="Group 5597" transform="translate(-126 -358.9)">
    <path id="Path_828" data-name="Path 828" d="M121.759,125.38H27.793a6.114,6.114,0,0,1-5.986-6.2V34.54a6.114,6.114,0,0,1,5.986-6.2h93.967a6.114,6.114,0,0,1,5.986,6.2v84.638A6.114,6.114,0,0,1,121.759,125.38Z" transform="translate(111.314 331.336)" fill="#4b8bcb"/>
    <g id="Group_5573" data-name="Group 5573" transform="translate(133.121 359.675)">
      <path id="Path_829" data-name="Path 829" d="M31.14,119.178V34.54a6.22,6.22,0,0,1,6.2-6.2H28.008a6.22,6.22,0,0,0-6.2,6.2v84.638a6.22,6.22,0,0,0,6.2,6.2h9.333a6.22,6.22,0,0,1-6.2-6.2Z" transform="translate(-21.807 -28.339)" fill="#4b8bcb"/>
    </g>
    <g id="Group_5574" data-name="Group 5574" transform="translate(227.345 359.675)">
      <path id="Path_830" data-name="Path 830" d="M210.335,119.178V34.54a6.22,6.22,0,0,0-6.2-6.2h9.333a6.22,6.22,0,0,1,6.2,6.2v84.638a6.22,6.22,0,0,1-6.2,6.2h-9.333A6.22,6.22,0,0,0,210.335,119.178Z" transform="translate(-204.134 -28.339)" fill="#4a8bcb"/>
    </g>
    <g id="Group_5575" data-name="Group 5575" transform="translate(133.121 359.675)">
      <path id="Path_831" data-name="Path 831" d="M131.565,34.54a6.22,6.22,0,0,0-6.2-6.2H28.008a6.22,6.22,0,0,0-6.2,6.2V48.8H131.565Z" transform="translate(-21.807 -28.339)" fill="#1c548c"/>
    </g>
    <g id="Group_5576" data-name="Group 5576" transform="translate(133.121 359.675)">
      <path id="Path_832" data-name="Path 832" d="M37.341,28.339H28.008a6.22,6.22,0,0,0-6.2,6.2V48.8H31.14V34.54a6.22,6.22,0,0,1,6.2-6.2Z" transform="translate(-21.807 -28.339)" fill="#1c548c"/>
    </g>
    <g id="Group_5577" data-name="Group 5577" transform="translate(227.345 359.675)">
      <path id="Path_833" data-name="Path 833" d="M204.134,28.339h9.333a6.22,6.22,0,0,1,6.2,6.2V48.8h-9.333V34.54a6.22,6.22,0,0,0-6.2-6.2Z" transform="translate(-204.134 -28.339)" fill="#1c548c"/>
    </g>
    <g id="Group_5579" data-name="Group 5579" transform="translate(141.723 365.628)">
      <g id="Group_5578" data-name="Group 5578">
        <circle id="Ellipse_60" data-name="Ellipse 60" cx="4.279" cy="4.279" r="4.279" fill="#f8af23"/>
        <circle id="Ellipse_61" data-name="Ellipse 61" cx="4.279" cy="4.279" r="4.279" transform="translate(13.116)" fill="#f8af23"/>
        <circle id="Ellipse_62" data-name="Ellipse 62" cx="4.279" cy="4.279" r="4.279" transform="translate(26.232)" fill="#f8af23"/>
      </g>
      <path id="Path_834" data-name="Path 834" d="M190.789,48.217H167.921a1.873,1.873,0,0,1,0-3.747h22.868a1.873,1.873,0,1,1,0,3.747Z" transform="translate(-100.108 -42.086)" fill="#9e9e9e"/>
    </g>
    <path id="Path_835" data-name="Path 835" d="M129.964,158.794a6.183,6.183,0,0,1-6.165,6.165H75.678a6.183,6.183,0,0,1-6.165-6.165V130.239a6.183,6.183,0,0,1,6.165-6.165H123.8a6.183,6.183,0,0,1,6.165,6.165Z" transform="translate(88.262 285.076)" fill="#f8af23"/>
    <path id="Path_836" data-name="Path 836" d="M73.124,174.7a6.138,6.138,0,0,0,4.3,1.765h48.121a6.138,6.138,0,0,0,4.3-1.765l-28.359-26.819Z" transform="translate(86.517 273.573)" fill="#1c548c"/>
    <path id="Path_837" data-name="Path 837" d="M129.843,125.838a6.138,6.138,0,0,0-4.3-1.765H77.424a6.138,6.138,0,0,0-4.3,1.765l28.359,26.819Z" transform="translate(86.516 285.076)" fill="#9e9e9e"/>
    <circle id="Ellipse_63" data-name="Ellipse 63" cx="15.21" cy="15.21" r="15.21" transform="translate(172.79 386.818)" fill="#f8af23"/>
    <path id="Path_838" data-name="Path 838" d="M128.172,90.845l-.476,11.077a1.683,1.683,0,0,1-1.682,1.611h-1.058a1.683,1.683,0,0,1-1.682-1.611L122.8,90.845a1.683,1.683,0,0,1,1.682-1.756h2.01A1.683,1.683,0,0,1,128.172,90.845Zm-.042,16.792v1.684A1.683,1.683,0,0,1,126.446,111h-1.892a1.683,1.683,0,0,1-1.683-1.683v-1.684a1.683,1.683,0,0,1,1.683-1.683h1.892A1.684,1.684,0,0,1,128.13,107.637Z" transform="translate(62.514 301.981)" fill="#63bce7"/>
    <path id="Path_839" data-name="Path 839" d="M18.194,226.161H8.8a.775.775,0,1,0,0,1.55h9.391a.775.775,0,1,0,0-1.55Z" transform="translate(117.972 235.746)" fill="#3f3679"/>
    <path id="Path_840" data-name="Path 840" d="M236.966,226.161h-9.391a.775.775,0,1,0,0,1.55h9.391a.775.775,0,1,0,0-1.55Z" transform="translate(12.259 235.746)" fill="#3f3679"/>
    <path id="Path_841" data-name="Path 841" d="M130.155,226.161H41.487a.775.775,0,1,0,0,1.55h88.668a.775.775,0,1,0,0-1.55Z" transform="translate(102.179 235.746)" fill="#3f3679"/>
    <path id="Path_842" data-name="Path 842" d="M132.028,124.655a.775.775,0,0,0-.775-.775h-8.171a6.963,6.963,0,0,0,2.6-5.426V33.816a6.984,6.984,0,0,0-6.977-6.977H21.35a6.984,6.984,0,0,0-6.977,6.977v84.638a6.965,6.965,0,0,0,2.6,5.426H8.8a.775.775,0,1,0,0,1.55H131.252A.776.776,0,0,0,132.028,124.655ZM15.924,33.816a5.432,5.432,0,0,1,5.426-5.426h97.356a5.432,5.432,0,0,1,5.426,5.426V47.3H15.924ZM21.35,123.88a5.432,5.432,0,0,1-5.426-5.426V56.225H43.543a.775.775,0,0,0,0-1.55H15.924V48.852H124.133v69.6a5.432,5.432,0,0,1-5.426,5.426Z" transform="translate(117.972 332.061)" fill="#3f3679"/>
    <path id="Path_843" data-name="Path 843" d="M42.006,38.356a5.054,5.054,0,1,0,5.054,5.055,5.06,5.06,0,0,0-5.054-5.055Zm0,8.559a3.5,3.5,0,1,1,3.5-3.5A3.508,3.508,0,0,1,42.006,46.915Z" transform="translate(103.996 326.496)" fill="#3f3679"/>
    <path id="Path_844" data-name="Path 844" d="M67.386,38.356a5.054,5.054,0,1,0,5.054,5.055,5.06,5.06,0,0,0-5.054-5.055Zm0,8.559a3.5,3.5,0,1,1,3.5-3.5A3.508,3.508,0,0,1,67.386,46.915Z" transform="translate(91.732 326.496)" fill="#3f3679"/>
    <path id="Path_845" data-name="Path 845" d="M92.766,38.356a5.054,5.054,0,1,0,5.054,5.055,5.06,5.06,0,0,0-5.054-5.055Zm0,8.559a3.5,3.5,0,1,1,3.5-3.5A3.508,3.508,0,0,1,92.766,46.915Z" transform="translate(79.468 326.496)" fill="#3f3679"/>
    <path id="Path_846" data-name="Path 846" d="M190.064,42.97H167.2a2.649,2.649,0,1,0,0,5.3h22.868a2.649,2.649,0,0,0,0-5.3Zm0,3.747H167.2a1.1,1.1,0,1,1,0-2.2h22.868a1.1,1.1,0,1,1,0,2.2Z" transform="translate(42.34 324.266)" fill="#3f3679"/>
    <path id="Path_847" data-name="Path 847" d="M87.025,82.251h3.488a.775.775,0,0,0,0-1.55H87.025a.775.775,0,0,0,0,1.55Z" transform="translate(80.174 306.034)" fill="#3f3679"/>
    <path id="Path_848" data-name="Path 848" d="M123.074,101.693H113.68a15.985,15.985,0,1,0-29.335,0H74.952a6.949,6.949,0,0,0-6.94,6.94v28.555a6.948,6.948,0,0,0,6.94,6.94h48.121a6.949,6.949,0,0,0,6.94-6.94V108.634A6.948,6.948,0,0,0,123.074,101.693ZM99.013,80.912A14.434,14.434,0,1,1,84.579,95.347,14.451,14.451,0,0,1,99.013,80.912ZM85.124,103.244a15.97,15.97,0,0,0,27.778,0h10.171a5.353,5.353,0,0,1,3.141,1.019l-27.2,25.723-27.2-25.723a5.354,5.354,0,0,1,3.141-1.019Zm-15.561,5.39A5.357,5.357,0,0,1,70.7,105.34l18.581,17.571L70.7,140.482a5.357,5.357,0,0,1-1.133-3.294V108.634Zm5.39,33.945a5.353,5.353,0,0,1-3.141-1.019L90.4,123.978l8.076,7.638a.775.775,0,0,0,1.065,0l8.076-7.638,18.592,17.583a5.354,5.354,0,0,1-3.141,1.019Zm53.511-5.39a5.36,5.36,0,0,1-1.133,3.294L108.75,122.912,127.33,105.34a5.357,5.357,0,0,1,1.133,3.294v28.555Z" transform="translate(88.987 306.681)" fill="#3f3679"/>
    <path id="Path_849" data-name="Path 849" d="M125.791,120.224H123.9a2.461,2.461,0,0,0-2.458,2.458v1.684a2.461,2.461,0,0,0,2.458,2.458h1.891a2.461,2.461,0,0,0,2.458-2.458v-1.684A2.461,2.461,0,0,0,125.791,120.224Zm.908,4.143a.909.909,0,0,1-.908.908H123.9a.909.909,0,0,1-.908-.908v-1.684a.909.909,0,0,1,.908-.908h1.891a.909.909,0,0,1,.908.908Z" transform="translate(63.169 286.936)" fill="#3f3679"/>
    <path id="Path_850" data-name="Path 850" d="M124.233,103.583h1.058a2.453,2.453,0,0,0,2.456-2.353l.476-11.077a2.459,2.459,0,0,0-2.456-2.564h-2.01a2.459,2.459,0,0,0-2.456,2.564l.476,11.076a2.453,2.453,0,0,0,2.456,2.353ZM123.1,89.419a.9.9,0,0,1,.656-.28h2.01a.908.908,0,0,1,.907.947l-.476,11.077a.905.905,0,0,1-.907.869h-1.058a.905.905,0,0,1-.907-.869l-.476-11.076a.9.9,0,0,1,.251-.667Z" transform="translate(63.238 302.706)" fill="#3f3679"/>
  </g>
</svg>
