<svg xmlns="http://www.w3.org/2000/svg" xmlns:xlink="http://www.w3.org/1999/xlink" width="248.044" height="248.044" viewBox="0 0 248.044 248.044">
  <defs>
    <clipPath id="clip-path">
      <rect width="248.044" height="248.044" fill="none"/>
    </clipPath>
  </defs>
  <g id="Repeat_Grid_1" data-name="Repeat Grid 1" clip-path="url(#clip-path)">
    <g id="Group_5600" data-name="Group 5600" transform="translate(-1014.732 -1946.228)">
      <circle id="Ellipse_73" data-name="Ellipse 73" cx="124.022" cy="124.022" r="124.022" transform="translate(1014.732 1946.228)" fill="#f0f0f0"/>
      <circle id="Ellipse_188" data-name="Ellipse 188" cx="16.558" cy="16.558" r="16.558" transform="translate(1129.077 1969.985)" fill="#2f2e41"/>
      <path id="Path_969" data-name="Path 969" d="M599.175,428.848a16.56,16.56,0,0,1,6.021-27.793,16.554,16.554,0,1,0,7.675,32.069,16.519,16.519,0,0,1-13.7-4.277Z" transform="translate(532.094 1566.31)" fill="#2f2e41"/>
      <circle id="Ellipse_189" data-name="Ellipse 189" cx="48.641" cy="48.641" r="48.641" transform="translate(1096.324 2005.268)" fill="#2f2e41"/>
      <path id="Path_970" data-name="Path 970" d="M585.134,438.067a48.634,48.634,0,0,1,67.411-5.1c-.4-.379-.793-.76-1.2-1.126A48.641,48.641,0,1,0,586.429,504.3l.278.247c.413.367.837.714,1.259,1.065a48.633,48.633,0,0,1-2.83-67.544Z" transform="translate(517.562 1579.151)" fill="#2f2e41"/>
      <circle id="Ellipse_190" data-name="Ellipse 190" cx="31.327" cy="31.327" r="31.327" transform="translate(1114.227 2029.573)" fill="#f6acb7"/>
      <path id="Path_1626" data-name="Path 1626" d="M695.847,523.91v10.511c-1.924,1.23-3.868,2.38-5.851,3.471-.793.436-1.586.853-2.379,1.269l-.476.238c-.992.5-1.964,1.012-2.975,1.488-.019.02-.06.02-.079.04a108.289,108.289,0,0,1-13.864,5.494c-.019,0-.039.02-.059.02a110.076,110.076,0,0,1-23.085,4.661c-3.431.337-6.9.5-10.412.5a110.537,110.537,0,0,1-28.5-3.729,107.334,107.334,0,0,1-13.922-4.7c-.04-.02-.06-.02-.1-.04-.456-.2-.952-.4-1.408-.6-2.241-.972-4.423-2.023-6.565-3.133l-.932-.476c-2.281-1.21-4.522-2.479-6.724-3.848l-.119-.06a108.6,108.6,0,0,1-9.8-6.882c-1.606-1.23-3.153-2.519-4.661-3.867-.793-.674-1.586-1.388-2.34-2.082a107.33,107.33,0,0,1-8.231-8.488,40.113,40.113,0,0,1,1.508-6.089l.019-.02a8.891,8.891,0,0,1,.417-.992,7.91,7.91,0,0,1,.377-.833c3.55-6.644,9.976-8.29,17.949-8.647,4.5-.2,9.479.02,14.736-.04,2.776-.02,5.652-.119,8.528-.377,18.147-1.646,14.855-12.356,15.668-18.127.813-5.593,5.851-.754,6.188-.436l.019.02a64,64,0,0,0,32.922,5.771c1.944-.238,3.887-.377,5.831-.436,5.117-.06,4.006,1.408,2.242,2.618a22.162,22.162,0,0,1-2.677,1.507s-.813,4.958-1.646,12.375c-.793,7.1,24.216,9.559,29.115,11.106h.019a17.885,17.885,0,0,1,11.265,12.812Z" transform="translate(505.768 1618.615)" fill="#1c74bb"/>
      <path id="Ellipse_191" data-name="Ellipse 191" d="M2.473,0C3.839,0,4.946,2.03,4.946,4.534S3.839,9.067,2.473,9.067,0,7.038,0,4.534,1.107,0,2.473,0Z" transform="translate(1111.342 2049.773)" fill="#f6acb7"/>
      <ellipse id="Ellipse_192" data-name="Ellipse 192" cx="2.473" cy="4.534" rx="2.473" ry="4.534" transform="translate(1174.825 2049.773)" fill="#f6acb7"/>
      <path id="Path_1636" data-name="Path 1636" d="M650.458,448.5A15.25,15.25,0,0,0,643,439.545a42.545,42.545,0,0,0-11.253-3.956,74.045,74.045,0,0,0-21.075-2.884c-7.108.349-14.374,2.8-19.2,8.03s-6.619,13.526-3.1,19.712l-.389,1.6a29.366,29.366,0,0,0,28.7-14.136,26.809,26.809,0,0,0,25.374,12.328,11.887,11.887,0,0,0,4.531-1.3,9.427,9.427,0,0,0,3.877-10.436Z" transform="translate(528.941 1588.429)" fill="#2f2e41"/>
    </g>
  </g>
</svg>
