<svg id="ui_1_" data-name="ui (1)" xmlns="http://www.w3.org/2000/svg" width="136.277" height="113.659" viewBox="0 0 136.277 113.659">
  <path id="Path_851" data-name="Path 851" d="M26.131,115.261A7.77,7.77,0,0,1,18.37,107.5V37.2a7.77,7.77,0,0,1,7.761-7.761H135.139A7.77,7.77,0,0,1,142.9,37.2v70.3a7.77,7.77,0,0,1-7.761,7.761Z" transform="translate(-12.496 -28.588)" fill="#1c548c"/>
  <path id="Path_852" data-name="Path 852" d="M141.757,104.318a2.994,2.994,0,0,1-2.985,2.985H29.764a2.994,2.994,0,0,1-2.985-2.985V40.834a2.994,2.994,0,0,1,2.985-2.985H138.772a2.994,2.994,0,0,1,2.985,2.985v63.484Z" transform="translate(-16.129 -32.221)" fill="#4b8bcb"/>
  <g id="Group_5586" data-name="Group 5586" transform="translate(10.65 5.628)">
    <path id="Path_853" data-name="Path 853" d="M37.036,104.318V40.834a2.994,2.994,0,0,1,2.985-2.985H29.764a2.994,2.994,0,0,0-2.985,2.985v63.484a2.994,2.994,0,0,0,2.985,2.985H40.021a3,3,0,0,1-2.985-2.986Z" transform="translate(-26.779 -37.849)" fill="#4b8bcb"/>
  </g>
  <g id="Group_5587" data-name="Group 5587" transform="translate(112.386 5.628)">
    <path id="Path_854" data-name="Path 854" d="M208.891,104.318V40.834a2.994,2.994,0,0,0-2.985-2.985h10.257a2.994,2.994,0,0,1,2.985,2.985v63.484a2.994,2.994,0,0,1-2.985,2.985H205.906a3,3,0,0,0,2.985-2.986Z" transform="translate(-205.906 -37.849)" fill="#4b8bcb"/>
  </g>
  <path id="Path_855" data-name="Path 855" d="M96.752,180.546h35.495v10.8H96.752Z" transform="translate(-46.361 -93.873)" fill="#f8af23"/>
  <g id="Group_5588" data-name="Group 5588" transform="translate(50.391 86.673)">
    <path id="Path_856" data-name="Path 856" d="M96.752,180.546h10.257v10.8H96.752Z" transform="translate(-96.752 -180.546)" fill="#828282"/>
  </g>
  <g id="Group_5589" data-name="Group 5589" transform="translate(75.63 86.673)">
    <path id="Path_857" data-name="Path 857" d="M141.19,180.546h10.257v10.8H141.19Z" transform="translate(-141.19 -180.546)" fill="#828282"/>
  </g>
  <path id="Path_858" data-name="Path 858" d="M134.888,208.339H77.312V202.4a2.84,2.84,0,0,1,2.84-2.84h51.9a2.84,2.84,0,0,1,2.84,2.84Z" transform="translate(-37.962 -102.089)" fill="#828282"/>
  <g id="Group_5590" data-name="Group 5590" transform="translate(39.35 97.475)">
    <path id="Path_859" data-name="Path 859" d="M90.408,199.564H80.152a2.84,2.84,0,0,0-2.84,2.84v5.935H87.569V202.4A2.84,2.84,0,0,1,90.408,199.564Z" transform="translate(-77.312 -199.564)" fill="#707070"/>
  </g>
  <g id="Group_5591" data-name="Group 5591" transform="translate(83.831 97.475)">
    <path id="Path_860" data-name="Path 860" d="M155.629,199.564h10.257a2.84,2.84,0,0,1,2.84,2.84v5.935H158.469V202.4A2.84,2.84,0,0,0,155.629,199.564Z" transform="translate(-155.629 -199.564)" fill="#828282"/>
  </g>
  <g id="Group_5593" data-name="Group 5593" transform="translate(35.67 5.628)">
    <circle id="Ellipse_64" data-name="Ellipse 64" cx="32.469" cy="32.469" r="32.469" fill="#1c548c"/>
    <g id="Group_5592" data-name="Group 5592" transform="translate(8.309 8.309)">
      <circle id="Ellipse_65" data-name="Ellipse 65" cx="24.16" cy="24.16" r="24.16" fill="#f8af23"/>
      <path id="Path_861" data-name="Path 861" d="M121.415,192.89a8.656,8.656,0,0,1-8.656-8.656V172.462a8.656,8.656,0,1,1,17.312,0v11.771A8.656,8.656,0,0,1,121.415,192.89Z" transform="translate(-97.256 -100.577)" fill="#828282"/>
    </g>
  </g>
  <g id="Group_5596" data-name="Group 5596">
    <path id="Path_862" data-name="Path 862" d="M130.723,77.537a11.378,11.378,0,1,0-21.35,5.481l7.1,14.15a3.211,3.211,0,0,0,5.739,0l7.1-14.146A11.319,11.319,0,0,0,130.723,77.537Z" transform="translate(-51.206 -44.453)" fill="#63bce7"/>
    <g id="Group_5595" data-name="Group 5595">
      <circle id="Ellipse_66" data-name="Ellipse 66" cx="4.748" cy="4.748" r="4.748" transform="translate(63.438 27.912)" fill="#f8af23"/>
      <g id="Group_5594" data-name="Group 5594">
        <path id="Path_863" data-name="Path 863" d="M25.483,115.465h35.9v9.1H54.038a3.7,3.7,0,0,0-3.692,3.692v5.083H23.021a.852.852,0,0,0,0,1.7H136.953a.852.852,0,0,0,0-1.7H109.627v-5.083a3.7,3.7,0,0,0-3.692-3.692H98.587v-9.1h35.9a8.623,8.623,0,0,0,8.612-8.612v-70.3a8.623,8.623,0,0,0-8.612-8.613H25.483a8.623,8.623,0,0,0-8.613,8.613v70.3a8.623,8.623,0,0,0,8.613,8.613Zm37.608,0h7.387v9.1H63.091ZM52.05,133.338v-5.083a1.99,1.99,0,0,1,1.988-1.988H70.515a9.5,9.5,0,0,0,4.055,7.071Zm27.937-27.38a7.813,7.813,0,0,1,7.8,7.8v11.771a7.8,7.8,0,0,1-15.609,0V113.762A7.813,7.813,0,0,1,79.987,105.958Zm27.936,22.3v5.083H85.4a9.5,9.5,0,0,0,4.055-7.071h16.477A1.991,1.991,0,0,1,107.923,128.254Zm-11.04-3.692H89.495v-9.1h7.387ZM18.574,36.553a6.917,6.917,0,0,1,6.909-6.909H134.491a6.917,6.917,0,0,1,6.909,6.909v70.3a6.917,6.917,0,0,1-6.909,6.909h-45a9.517,9.517,0,0,0-8.656-9.464v-.423h53.652a3.841,3.841,0,0,0,3.837-3.837V36.552a3.841,3.841,0,0,0-3.837-3.837H25.483a3.841,3.841,0,0,0-3.837,3.837v63.484a3.841,3.841,0,0,0,3.837,3.837H79.135v.423a9.517,9.517,0,0,0-8.656,9.464h-45a6.917,6.917,0,0,1-6.909-6.909Zm61.413,61.1A31.617,31.617,0,1,1,111.6,66.037,31.653,31.653,0,0,1,79.987,97.654ZM46.667,66.037a33.353,33.353,0,0,0,32.468,33.3v2.834H25.483a2.136,2.136,0,0,1-2.133-2.133V36.552a2.136,2.136,0,0,1,2.133-2.133H69.49A33.373,33.373,0,0,0,46.667,66.037Zm34.172,33.3A33.31,33.31,0,0,0,90.484,34.42h44.007a2.135,2.135,0,0,1,2.133,2.133v63.484a2.135,2.135,0,0,1-2.133,2.133H80.839Z" transform="translate(-11.848 -27.94)" fill="#3f3679"/>
        <path id="Path_864" data-name="Path 864" d="M19.2,225.06H8.88a.852.852,0,1,0,0,1.7H19.2a.852.852,0,1,0,0-1.7Z" transform="translate(-8.028 -113.105)" fill="#3f3679"/>
        <path id="Path_865" data-name="Path 865" d="M237.973,225.06H227.652a.852.852,0,0,0,0,1.7h10.321a.852.852,0,0,0,0-1.7Z" transform="translate(-102.547 -113.105)" fill="#3f3679"/>
        <path id="Path_866" data-name="Path 866" d="M139.011,225.06H41.563a.852.852,0,1,0,0,1.7h97.448a.852.852,0,0,0,0-1.7Z" transform="translate(-22.149 -113.105)" fill="#3f3679"/>
        <path id="Path_867" data-name="Path 867" d="M8.88,215.218h4.432a.852.852,0,1,0,0-1.7H8.88a.852.852,0,1,0,0,1.7Z" transform="translate(-8.028 -108.116)" fill="#3f3679"/>
        <path id="Path_868" data-name="Path 868" d="M237.169,214.366a.852.852,0,0,0,.852.852h4.432a.852.852,0,0,0,0-1.7h-4.432A.852.852,0,0,0,237.169,214.366Z" transform="translate(-107.027 -108.116)" fill="#3f3679"/>
        <path id="Path_869" data-name="Path 869" d="M108.974,50.979a25.012,25.012,0,1,0,25.012,25.012A25.04,25.04,0,0,0,108.974,50.979Zm0,48.319a23.308,23.308,0,1,1,23.308-23.308A23.334,23.334,0,0,1,108.974,99.3Z" transform="translate(-40.835 -37.894)" fill="#3f3679"/>
        <path id="Path_870" data-name="Path 870" d="M118.137,64.672a12.324,12.324,0,0,0-11.651,11.535,12.171,12.171,0,0,0,1.477,6.545l7.1,14.151a4.063,4.063,0,0,0,7.262,0l7.085-14.117a12.235,12.235,0,0,0-2.264-14.736A12.11,12.11,0,0,0,118.137,64.672Zm9.769,17.32-7.1,14.146a2.359,2.359,0,0,1-4.216,0l-7.118-14.18a10.528,10.528,0,0,1,8.742-15.585c.164-.007.325-.011.488-.011a10.527,10.527,0,0,1,10.522,10.526,10.583,10.583,0,0,1-1.318,5.1Z" transform="translate(-50.558 -43.804)" fill="#3f3679"/>
        <path id="Path_871" data-name="Path 871" d="M123.823,75.585a5.6,5.6,0,1,0,5.6,5.6A5.606,5.606,0,0,0,123.823,75.585Zm0,9.5a3.9,3.9,0,1,1,3.9-3.9A3.9,3.9,0,0,1,123.823,85.082Z" transform="translate(-55.637 -48.525)" fill="#3f3679"/>
      </g>
    </g>
  </g>
</svg>
