<svg xmlns="http://www.w3.org/2000/svg" width="65.641" height="72.217" viewBox="0 0 65.641 72.217">
  <g id="undraw_mathematics_4otb" transform="translate(0)">
    <path id="Path_1640" data-name="Path 1640" d="M338.523,702.98c0,2.719-14.694,4.923-32.82,4.923s-32.82-2.2-32.82-4.923c0-1.925,7.366-3.592,18.1-4.4,4.427-.335,9.428-.522,14.72-.522,2.176,0,4.3.032,6.358.092C327.144,698.594,338.523,700.587,338.523,702.98Z" transform="translate(-272.882 -635.686)" fill="#3f3d56"/>
    <ellipse id="Ellipse_81" data-name="Ellipse 81" cx="12.599" cy="1.535" rx="12.599" ry="1.535" transform="translate(15.987 65.229)" opacity="0.1"/>
    <ellipse id="Ellipse_82" data-name="Ellipse 82" cx="11.911" cy="12.705" rx="11.911" ry="12.705" transform="translate(16.622 42.467)" fill="#3f3d56"/>
    <rect id="Rectangle_102" data-name="Rectangle 102" width="7.411" height="6.776" transform="translate(24.88 62.688)" fill="#6b62fc"/>
    <path id="Path_1641" data-name="Path 1641" d="M392.923,607.614l-.423,2.329,2.753.423,1.8-1.059-.106-1.694Z" transform="translate(-350.945 -543.285)" fill="#575a89"/>
    <path id="Path_1642" data-name="Path 1642" d="M531.258,303.038s-.212,2.435-.741,2.541,1.165,4.341,1.165,4.341h2.541l2.012-.529-.953-2.329s-1.271-1.694-.318-3.07S531.258,303.038,531.258,303.038Z" transform="translate(-503.148 -282.434)" fill="#a0616a"/>
    <path id="Path_1643" data-name="Path 1643" d="M531.258,303.038s-.212,2.435-.741,2.541,1.165,4.341,1.165,4.341h2.541l2.012-.529-.953-2.329s-1.271-1.694-.318-3.07S531.258,303.038,531.258,303.038Z" transform="translate(-503.148 -282.434)" opacity="0.1"/>
    <path id="Path_1644" data-name="Path 1644" d="M476.586,475.98s-2.753,5.294-.529,6.352,2.753.953,2.753,1.27-.424.212-.212.741-.424,2.647.212,3.917a3.622,3.622,0,0,1,.423,2.223,1.71,1.71,0,0,0,.212.529c.212.423.318.741.212.953s-.741,1.588-.106,1.906,3.917.529,4.235,0-.318-.847,0-1.165.529-.423.318-.635a15.57,15.57,0,0,1-.424-2.859,16.384,16.384,0,0,0,.318-3.494c-.212-.423-.529-.847-.318-1.165s.424-.212.529-.635.318-1.376.318-1.376l1.165-.106,2.753.529s3.07,3.388,6.458,4.447c0,0,.953.953,1.27.953s.318,0,.212.212-.424.212-.212.423.529-.106.318.212-.424.318-.212.529-.106,1.376-.106,1.482-.953,10.058-.635,10.27,4.764.847,5.082,0a2.79,2.79,0,0,0-.212-1.906s1.588-12.7,1.165-13.552-1.906-4.658-9.846-7.093c0,0-2.223-.423-2.223-.741s-.212-2.329-.635-2.435-2.859-.212-2.859-.212l-3.07.953-4.235-.741Z" transform="translate(-453.77 -436.743)" fill="#2f2e41"/>
    <path id="Path_1645" data-name="Path 1645" d="M517.557,644.875l-.529,1.906s-.423,3.07.106,3.811a3.33,3.33,0,0,0,2.535,1.42,1.7,1.7,0,0,0,1.776-1.177.53.53,0,0,0,.029-.137c0-.212-.318-2.753-.318-2.753l-.529-2.647-.106-.741Z" transform="translate(-491.036 -587.85)" fill="#2f2e41"/>
    <path id="Path_1646" data-name="Path 1646" d="M662.19,725.282s-.529-.529-.635,0-.529,2.753.212,2.859,7.835,1.165,8.576.741,2.117-1.059,1.271-1.376-3.282-1.27-3.282-1.27a21.539,21.539,0,0,0-1.588-1.906,3.064,3.064,0,0,0-1.906.529A7.03,7.03,0,0,1,662.19,725.282Z" transform="translate(-620.211 -659.153)" fill="#2f2e41"/>
    <circle id="Ellipse_83" data-name="Ellipse 83" cx="3.282" cy="3.282" r="3.282" transform="translate(27.368 16.263)" fill="#a0616a"/>
    <path id="Path_1647" data-name="Path 1647" d="M490.236,327.888l-1.27-1.376-1.408-2.753s-1.027-.318-1.239.212-4.023,2.223-4.023,2.223.953,8.893.529,9.74-1.165,4.235-.529,4.553,3.6,0,4.552.423,3.706.423,4.447-.106.953-.953,1.694-.635c.631.27,2.106-8.974,2.53-11.729a1.254,1.254,0,0,0-.52-1.219c-.95-.666-2.661-1.815-2.964-1.663A13.921,13.921,0,0,0,490.236,327.888Z" transform="translate(-459.903 -300.931)" fill="#575a89"/>
    <path id="Path_1648" data-name="Path 1648" d="M588.506,359.557h0a1.256,1.256,0,0,1,.943,1.079l.856,7.708s-2.117,4.552-3.176,1.482S588.506,359.557,588.506,359.557Z" transform="translate(-553.621 -333.024)" fill="#575a89"/>
    <path id="Path_1649" data-name="Path 1649" d="M586.013,444.192l2.329-.635s.424,2.964.847,2.964-1.482,1.694-2.435,1.482-2.329-.953-2.435-1.482a10.254,10.254,0,0,1,.953-2.753Z" transform="translate(-551.34 -408.131)" fill="#575a89"/>
    <path id="Path_1650" data-name="Path 1650" d="M520.865,247.434c.223-.492.185-1.066.369-1.574a1.877,1.877,0,0,1,2.854-.887c.237.169.475.407.765.375.312-.035.59-.383.877-.255.318.141.232.711.554.843a.407.407,0,0,0,.468-.192,1.189,1.189,0,0,0,.136-.527,2.521,2.521,0,0,0-.111-1.339,3.214,3.214,0,0,1-.215-.433,1.482,1.482,0,0,1-.041-.427,3.06,3.06,0,0,0-.308-1.543,2.237,2.237,0,0,0-1.416-.976,5.4,5.4,0,0,0-1.757-.071,5.047,5.047,0,0,0-2.746.861,1.076,1.076,0,0,0-.264.277,1.434,1.434,0,0,0-.141.407,8.411,8.411,0,0,1-.738,1.935,4.194,4.194,0,0,0-.381.822,1.064,1.064,0,0,0,.094.875,3.344,3.344,0,0,0,.532.48c.172.165.252.483.443.608.166.109.365.032.535.148C520.593,246.989,520.609,247.315,520.865,247.434Z" transform="translate(-492.692 -226.473)" fill="#2f2e41"/>
    <path id="Path_1651" data-name="Path 1651" d="M564.382,373.192l.318-.635s4.658,1.376,5.611,2.647c0,0,2.329-1.482,3.6-1.271l1.27.212-3.917,3.494-4.976-.424Z" transform="translate(-533.52 -344.648)" fill="#f2f2f2"/>
    <path id="Path_1652" data-name="Path 1652" d="M525.723,372.557l-4.341,6.035,6.246,3.07a1.074,1.074,0,0,0,1.033,0l4.155-1.906,3.917-5.611-3.917,2.012a.927.927,0,0,0-1.27-.423Z" transform="translate(-495.072 -344.648)" fill="#6c63ff"/>
    <path id="Path_1653" data-name="Path 1653" d="M620.911,422.77l.847-2.223s1.906-2.435.847-3.6-2.223,3.388-2.223,3.388Z" transform="translate(-583.591 -384.168)" fill="#a0616a"/>
    <path id="Path_1654" data-name="Path 1654" d="M533.079,431.433l1.848-1.5s2.87-1.15,2.539-2.689-3.623,1.815-3.623,1.815Z" transform="translate(-505.531 -393.186)" fill="#a0616a"/>
    <path id="Path_1655" data-name="Path 1655" d="M468.508,363.166H468.4s-1.641-1.959-1.959.688-1.376,11.434,1.376,11.752a6.694,6.694,0,0,0,4.711-1.323s2.012-3.07,1.27-3.07a19.922,19.922,0,0,0-2.223-.106c-.949.059-1.8.326-1.747.053C469.937,370.63,471.472,363.907,468.508,363.166Z" transform="translate(-445.533 -335.627)" opacity="0.1"/>
    <path id="Path_1656" data-name="Path 1656" d="M463.879,347.769l-.423-.212s-1.694.318-2.012,2.964-1.376,11.434,1.376,11.752a25.4,25.4,0,0,0,6.458-.423s.741-4.023,0-4.023-4.553.529-4.447,0S466.843,348.51,463.879,347.769Z" transform="translate(-441.063 -322.294)" fill="#6c63ff"/>
    <path id="Path_1657" data-name="Path 1657" d="M338,338l1.167-1.789.738,2.954-1.906.847Z" transform="translate(-302.215 -300.617)" fill="#575a89"/>
    <circle id="Ellipse_84" data-name="Ellipse 84" cx="2.859" cy="2.859" r="2.859" transform="translate(8.944 6.153)" fill="#f2f2f2"/>
    <rect id="Rectangle_103" data-name="Rectangle 103" width="6.776" height="6.776" transform="translate(8.414 30.292)" fill="#f2f2f2"/>
    <path id="Path_1658" data-name="Path 1658" d="M343.033,0l1.715,2.97,1.715,2.97H339.6l1.715-2.97Z" transform="translate(-303.648)" fill="#f2f2f2"/>
  </g>
</svg>
