<svg xmlns="http://www.w3.org/2000/svg" xmlns:xlink="http://www.w3.org/1999/xlink" width="66.751" height="48.12" viewBox="0 0 66.751 48.12">
  <defs>
    <linearGradient id="linear-gradient" x1="0.5" y1="1.001" x2="0.5" gradientUnits="objectBoundingBox">
      <stop offset="0" stop-color="gray" stop-opacity="0.251"/>
      <stop offset="0.54" stop-color="gray" stop-opacity="0.122"/>
      <stop offset="1" stop-color="gray" stop-opacity="0.102"/>
    </linearGradient>
  </defs>
  <g id="undraw_fatherhood_7i19" transform="translate(0.01 0.003)">
    <path id="Path_1659" data-name="Path 1659" d="M63.3,484.53c1.056,4.515,3.292,8.417,6.825,10.311,7.344,3.931,23.906,1.9,36.267-.426a28.3,28.3,0,0,0,16.1-9.2Z" transform="translate(-62.588 -458.372)" fill="#6c63ff" opacity="0.1"/>
    <path id="Path_1660" data-name="Path 1660" d="M154.472,59.468H147.69a.586.586,0,1,1,0-1.172h1.172a.587.587,0,0,1,0-1.172h-.837a.587.587,0,0,1,0-1.172h3.54a9.366,9.366,0,0,0-2.762-.761c-9.652-1.239-13.1-.419-14.314.426a13.517,13.517,0,0,1-4.961,2.175c-5.955,1.228-17.093,2.707-27.187-.473-5.017-1.582-8.746,1.09-10.981,5.554h64.289a10.476,10.476,0,0,0-.8-3.544A.582.582,0,0,1,154.472,59.468Z" transform="translate(-88.941 -54.56)" fill="#6c63ff" opacity="0.1"/>
    <path id="Path_1661" data-name="Path 1661" d="M51.586,329.66a29.881,29.881,0,0,0,.263,7.876l59.546,2.178a27.979,27.979,0,0,0,4.137-6.31Zm23.551,5.618H73.965a.586.586,0,1,1,0,1.172H67.183a.586.586,0,1,1,0-1.172h1.172a.587.587,0,0,1,0-1.172h-.837a.587.587,0,0,1,0-1.172H74.3a.587.587,0,0,1,0,1.172h.837a.587.587,0,0,1,0,1.172Z" transform="translate(-51.45 -312.925)" fill="#6c63ff" opacity="0.1"/>
    <path id="Path_1662" data-name="Path 1662" d="M120.565,191.84l-65.01,1.582A25.938,25.938,0,0,0,54,200.135h65.426a27.81,27.81,0,0,0,.945-4.279A20.276,20.276,0,0,0,120.565,191.84ZM67.2,197.021H66.026a.586.586,0,1,1,0,1.172H59.243a.586.586,0,1,1,0-1.172h1.172a.587.587,0,0,1,0-1.172h-.837a.587.587,0,0,1,0-1.172h6.782a.587.587,0,0,1,0,1.172H67.2a.587.587,0,0,1,0,1.172Z" transform="translate(-53.854 -183.49)" fill="#6c63ff" opacity="0.1"/>
    <ellipse id="Ellipse_85" data-name="Ellipse 85" cx="21.224" cy="1.149" rx="21.224" ry="1.149" transform="translate(13.06 45.82)" fill="#6c63ff" opacity="0.1"/>
    <path id="Path_1663" data-name="Path 1663" d="M890.447,687.74s.334.438-.155,1.1-.891,1.217-.73,1.629c0,0,.737-1.226,1.339-1.243S891.107,688.477,890.447,687.74Z" transform="translate(-838.544 -649.218)" fill="#6c63ff"/>
    <path id="Path_1664" data-name="Path 1664" d="M890.76,687.74a.567.567,0,0,1,.068.137c.585.688.9,1.33.335,1.346-.524.015-1.153.952-1.3,1.189a.464.464,0,0,0,.018.054s.737-1.226,1.339-1.243S891.42,688.477,890.76,687.74Z" transform="translate(-838.858 -649.218)" opacity="0.1"/>
    <path id="Path_1665" data-name="Path 1665" d="M913.677,695.379c0,.154-.017.279-.038.279s-.039-.125-.039-.279.022-.082.043-.082S913.677,695.225,913.677,695.379Z" transform="translate(-861.153 -656.299)" fill="#ffd037"/>
    <path id="Path_1666" data-name="Path 1666" d="M914.3,698.287c-.135.074-.252.118-.263.1s.091-.094.226-.167.082-.02.092,0S914.437,698.213,914.3,698.287Z" transform="translate(-861.565 -659.024)" fill="#ffd037"/>
    <path id="Path_1667" data-name="Path 1667" d="M864.057,687.74s-.334.438.155,1.1.891,1.217.73,1.629c0,0-.737-1.226-1.339-1.243S863.4,688.477,864.057,687.74Z" transform="translate(-813.919 -649.218)" fill="#6c63ff"/>
    <path id="Path_1668" data-name="Path 1668" d="M864.036,687.74a.541.541,0,0,0-.068.137c-.585.688-.9,1.33-.335,1.346.524.015,1.156.952,1.3,1.189,0,.018-.011.036-.018.054,0,0-.737-1.226-1.339-1.243S863.376,688.477,864.036,687.74Z" transform="translate(-813.899 -649.218)" opacity="0.1"/>
    <path id="Path_1669" data-name="Path 1669" d="M865.43,695.379c0,.154.017.279.038.279s.039-.125.039-.279-.022-.082-.043-.082S865.43,695.225,865.43,695.379Z" transform="translate(-815.914 -656.299)" fill="#ffd037"/>
    <path id="Path_1670" data-name="Path 1670" d="M860.653,698.287c.135.074.253.118.263.1s-.091-.094-.226-.167-.081-.02-.092,0S860.518,698.213,860.653,698.287Z" transform="translate(-811.351 -659.024)" fill="#ffd037"/>
    <path id="Path_1671" data-name="Path 1671" d="M867.18,723.789a3.44,3.44,0,0,0,1.217-.229c.282-.2,1.438-.441,1.508-.122s1.4,1.6.349,1.608a8.945,8.945,0,0,1-2.732-.335C867.24,724.54,867.18,723.789,867.18,723.789Z" transform="translate(-817.557 -682.598)" fill="#a8a8a8"/>
    <path id="Path_1672" data-name="Path 1672" d="M870.281,732.729a8.947,8.947,0,0,1-2.732-.335c-.214-.131-.3-.6-.328-.814h-.031s.061.753.34.925a8.915,8.915,0,0,0,2.732.335c.3,0,.41-.111.4-.271C870.624,732.667,870.508,732.727,870.281,732.729Z" transform="translate(-817.567 -690.391)" opacity="0.2"/>
    <path id="Path_1673" data-name="Path 1673" d="M285.758,719.814a.714.714,0,0,0,.234-.352.316.316,0,0,0-.163-.358c-.15-.057-.31.047-.431.151a.575.575,0,0,1-.419.2.637.637,0,0,0,.2-.6.251.251,0,0,0-.055-.122c-.083-.089-.234-.051-.333.019a1.243,1.243,0,0,0-.406,1.039,1.955,1.955,0,0,1-.005-.426.44.44,0,0,0-.161-.379.487.487,0,0,0-.243-.057.509.509,0,0,0-.4.113.391.391,0,0,0,.016.487,1.578,1.578,0,0,0,.411.33.913.913,0,0,1,.294.281.353.353,0,0,1,.022.051h.891A2.483,2.483,0,0,0,285.758,719.814Z" transform="translate(-269.386 -678.281)" fill="#6c63ff"/>
    <path id="Path_1674" data-name="Path 1674" d="M199.05,609.976s-.855-2.9.16-5.039a4.585,4.585,0,0,0,.372-2.877,7.68,7.68,0,0,0-.407-1.349" transform="translate(-189.762 -567.483)" fill="none" stroke="#535461" stroke-miterlimit="10" stroke-width="2"/>
    <path id="Path_1675" data-name="Path 1675" d="M196.778,568.87a5.109,5.109,0,0,1-.644,1.388,5.144,5.144,0,0,1-.644-1.388.644.644,0,0,1,1.288,0Z" transform="translate(-186.735 -536.994)" fill="#6c63ff"/>
    <path id="Path_1676" data-name="Path 1676" d="M214.175,595.778a5.1,5.1,0,0,1-1.295.815,5.1,5.1,0,0,1,.214-1.515.644.644,0,0,1,1.081.7Z" transform="translate(-203.067 -561.931)" fill="#6c63ff"/>
    <path id="Path_1677" data-name="Path 1677" d="M209.8,647.423a5.111,5.111,0,0,1-1.529.049,5.106,5.106,0,0,1,.949-1.2.644.644,0,1,1,.58,1.151Z" transform="translate(-198.738 -610.208)" fill="#6c63ff"/>
    <path id="Path_1678" data-name="Path 1678" d="M200.259,689.714a5.077,5.077,0,0,1-1.5.3,5.162,5.162,0,0,1,.73-1.343.644.644,0,1,1,.766,1.034Z" transform="translate(-189.806 -649.96)" fill="#6c63ff"/>
    <path id="Path_1679" data-name="Path 1679" d="M187.439,608.164a5.113,5.113,0,0,0,1.444.505,5.092,5.092,0,0,0-.548-1.429.644.644,0,1,0-.9.924Z" transform="translate(-178.978 -573.433)" fill="#6c63ff"/>
    <path id="Path_1680" data-name="Path 1680" d="M174.1,655.563a5.11,5.11,0,0,0,1.529.049,5.12,5.12,0,0,0-.949-1.2.644.644,0,1,0-.58,1.151Z" transform="translate(-166.311 -617.853)" fill="#6c63ff"/>
    <path id="Path_1681" data-name="Path 1681" d="M171.717,705.766a5.092,5.092,0,0,0,1.5.3,5.144,5.144,0,0,0-.73-1.343.644.644,0,0,0-.766,1.034Z" transform="translate(-164.188 -665.07)" fill="#6c63ff"/>
    <path id="Path_1682" data-name="Path 1682" d="M196.778,568.87a5.109,5.109,0,0,1-.644,1.388,5.144,5.144,0,0,1-.644-1.388.644.644,0,0,1,1.288,0Z" transform="translate(-186.735 -536.994)" fill="#6c63ff"/>
    <path id="Path_1683" data-name="Path 1683" d="M214.175,595.778a5.1,5.1,0,0,1-1.295.815,5.1,5.1,0,0,1,.214-1.515.644.644,0,0,1,1.081.7Z" transform="translate(-203.067 -561.931)" fill="#6c63ff"/>
    <path id="Path_1684" data-name="Path 1684" d="M209.8,647.423a5.111,5.111,0,0,1-1.529.049,5.106,5.106,0,0,1,.949-1.2.644.644,0,1,1,.58,1.151Z" transform="translate(-198.738 -610.208)" fill="#6c63ff"/>
    <path id="Path_1685" data-name="Path 1685" d="M200.259,689.714a5.077,5.077,0,0,1-1.5.3,5.162,5.162,0,0,1,.73-1.343.644.644,0,1,1,.766,1.034Z" transform="translate(-189.806 -649.96)" fill="#6c63ff"/>
    <path id="Path_1686" data-name="Path 1686" d="M187.439,608.164a5.113,5.113,0,0,0,1.444.505,5.092,5.092,0,0,0-.548-1.429.644.644,0,1,0-.9.924Z" transform="translate(-178.978 -573.433)" fill="#6c63ff"/>
    <path id="Path_1687" data-name="Path 1687" d="M174.1,655.563a5.11,5.11,0,0,0,1.529.049,5.12,5.12,0,0,0-.949-1.2.644.644,0,1,0-.58,1.151Z" transform="translate(-166.311 -617.853)" fill="#6c63ff"/>
    <path id="Path_1688" data-name="Path 1688" d="M171.717,705.766a5.092,5.092,0,0,0,1.5.3,5.144,5.144,0,0,0-.73-1.343.644.644,0,0,0-.766,1.034Z" transform="translate(-164.188 -665.07)" fill="#6c63ff"/>
    <path id="Path_1689" data-name="Path 1689" d="M171,734.323a3.911,3.911,0,0,0,1.319-.482c.277-.276,1.527-.758,1.666-.414s1.874,1.516.694,1.723a10.2,10.2,0,0,1-3.123.138C171.209,735.149,171,734.323,171,734.323Z" transform="translate(-163.735 -692.013)" fill="#a8a8a8"/>
    <path id="Path_1690" data-name="Path 1690" d="M174.68,750.576a10.227,10.227,0,0,1-3.123.138c-.264-.105-.448-.608-.52-.844l-.037.008s.209.827.555.964a10.241,10.241,0,0,0,3.123-.138c.341-.061.438-.2.4-.377C175.053,750.443,174.934,750.531,174.68,750.576Z" transform="translate(-163.735 -707.568)" opacity="0.2"/>
    <path id="Path_1691" data-name="Path 1691" d="M380.833,138.572a1.166,1.166,0,0,0,.2-.934s-1.542-3.929-1.713-3.972-.6-1.034-.6-1.034-4.111-3.908-4.259-3.908-1.649-1.079-1.841-1.1a2.518,2.518,0,0,1-.814-.3,13.767,13.767,0,0,0-3.7.173,1.98,1.98,0,0,1-.73.259s-1.221.064-1.392.28-1.434.33-1.434.33-.621.231.222.845h0c-.27.043-.586.075-.907.1l-.243.015h-.048a.8.8,0,0,0-.3-.4,2.506,2.506,0,0,0-.284-.132,2.268,2.268,0,0,1-.421-.289,13.8,13.8,0,0,0-1.991-1.319.953.953,0,0,0-.355-.133c-.261-.025-.494.158-.75.22-.449.108-.9-.166-1.363-.17a1.4,1.4,0,0,0-1.278,1,1.608,1.608,0,0,1-.235.6c-.183.212-.491.243-.741.369a1.118,1.118,0,0,0-.6.991v0a.578.578,0,0,0,.005.1,3.384,3.384,0,0,0,.237.748,3.091,3.091,0,0,1,.17.785.04.04,0,0,1,0,.009c0,.044.007.089.009.134v.158c0,.232-.008.467-.007.7v.143a.817.817,0,0,0,0,.094v.033a.834.834,0,0,0,.007.086.153.153,0,0,0,0,.037.625.625,0,0,0,.01.083l.005.039c0,.027.009.055.014.082l.007.038c.006.029.013.061.021.088,0,.01,0,.02.007.03q.016.061.036.117a1.715,1.715,0,0,0,1.135,1.07,1.055,1.055,0,0,0,.3.038.626.626,0,0,0,.465-.186c.027.03.053.061.081.091a3.646,3.646,0,0,0,5.922-.791l.191-.039.334-.061.108-.017h0l.043-.007c.548-.086,1.079-.144,1.46-.183l-1.505.187s-.365,1.753-.47,1.947.365.518.365.518.407.5.407.648.471.583.6.82a.366.366,0,0,0,.061.082.862.862,0,0,0-.259.158c-.3.282-.2.776-.335,1.163a1.972,1.972,0,0,1-.435.632.863.863,0,0,0-.153.212.522.522,0,0,0-.041.163h0a.787.787,0,0,0,0,.094v.011a.357.357,0,0,0,0,.072v.031c.03.254.116.5.142.754a7.241,7.241,0,0,0,.047.758,1.128,1.128,0,0,0,.084.25l-.871.973s-.005.048-.007.127c-.726.6-1.85,1.741-1.449,2.744q.066.165.122.316c-.3.188-.392.411.05.634.07.035.137.066.2.093.227.666.316.852.7.361.041-.054.088-.122.14-.2a1.481,1.481,0,0,0,.845-.259,5.682,5.682,0,0,1,1.886.152,2.471,2.471,0,0,0,1.054.143,11.045,11.045,0,0,0,.061,1.3,10.655,10.655,0,0,0,.107,2.224,5.113,5.113,0,0,1,.266,1.058s-.288.647-.117.993-.15.842-.15.842v1.273l.122-.009c-.009.086-.021.176-.036.262a.763.763,0,0,1-.17.435c-.214.154-.235.973-.235.973a4.663,4.663,0,0,0-.279,1.166c.064.173-.406.518-.3.777s.326,1.9.517,2.373-.388.346-.388.346l.171,1.23s.172,1.252.043,1.339-.867.712-.359,1.079c.04.029.08.055.122.08a1.311,1.311,0,0,1,0,.17c-.01.1-.034.174-.088.183-.151.022-.451.173-.514.108s-.426.163-.791.237l-.051.008-.474-.122a3.335,3.335,0,0,0-2.142-.079.82.82,0,0,0-.51.31.671.671,0,0,0-.046.574c.229.763,1.788,1.026,1.788,1.026s.54.111,1.189.259h-.065a.716.716,0,1,0,.243.044,14.532,14.532,0,0,1,1.867.517,5.716,5.716,0,0,0,.75.225.712.712,0,0,0,1.325.3c.994.207,1.951.383,1.951.383l1.6.026h.011a.712.712,0,1,0,.01,0l2.42.04a.714.714,0,1,0,1.378.022l2.134.035.426-.469a.378.378,0,0,0,.042-.147c.013-.154-.067-.388-.612-.487-.04-.007-1.152.01-2.135.027V167.6s-.027-.212-.044-.462c0-.074-.009-.15-.011-.226a.585.585,0,0,0,.183.083c.407.065.964-1.123.964-1.123a6.186,6.186,0,0,1,.128-1.209c.128-.54.365-2.353.365-2.353l.515-2.18s.213-4.448.106-4.62.129-.475.129-.475.171-.95-.086-1.273.15-.648.15-.648a3.227,3.227,0,0,0-.193-1.554.517.517,0,0,1,.141-.734l.107-1.749c.45-.453.856-3.152.878-3.735a2.4,2.4,0,0,1,.214-.95,2.514,2.514,0,0,0,.343-.756,4.477,4.477,0,0,1,.365-.928l.557-2.073a3.229,3.229,0,0,0,.018-1.895C380.88,138.682,380.856,138.626,380.833,138.572Zm-10.058.122c.343.216.235.281.343.41s.021.108-.064.324-.021.152.021.389.022.237.022.237l.107.015-.149,1a1.1,1.1,0,0,0-.405.777c-.144-.187-.288-.382-.418-.563a.831.831,0,0,0,.037-.329,6.9,6.9,0,0,1,.2-1.073,2.711,2.711,0,0,0-.035-1.1,1.676,1.676,0,0,0-.143-.391c.139.092.315.2.481.307Zm.385,21.157s.271-.183.534-.349c.088.641.172,1.307.231,1.909-.094-.209-.16-.352-.16-.352a.724.724,0,0,1-.166-.41,2.584,2.584,0,0,0-.439-.8Zm-1.606-22.191a.518.518,0,0,1,.229.178c-.075-.061-.151-.122-.229-.179Zm-3.919,7.987a7.31,7.31,0,0,1-1.582.037c.186-.318.371-.642.535-.932a1.979,1.979,0,0,0,.3.053l1.63-1.432a2.807,2.807,0,0,0,1.892-.012l.044.069.061.095-.041-.066s-.629.375-.565.548a1.954,1.954,0,0,1-.321,1.067c-.061.116-.114.23-.165.345A16.608,16.608,0,0,0,365.635,145.647Zm3.093,19.947-.009-.171c.1-.023.172-.043.172-.043a6.728,6.728,0,0,0-.107-.756c-.064-.259-.031-.173.22-.365s0-2.373,0-2.373.122-.151.315.237a1.755,1.755,0,0,0,.451.647c.064.021-.257.454,0,.864a2.482,2.482,0,0,1,.321.863s-.171.686.086.991a.378.378,0,0,0,.122.083v.173a2.132,2.132,0,0,1-.005.232.086.086,0,0,1-.137.054c-.066-.043-.487.054-.458.324a1.993,1.993,0,0,1-.336.315l-.583-.151Z" transform="translate(-336.775 -122.634)" fill="url(#linear-gradient)"/>
    <path id="Path_1692" data-name="Path 1692" d="M490.272,389.247a1.6,1.6,0,0,0,1.413,1.841l.243-1.156-.509-.685-.73-.247Z" transform="translate(-463.574 -368.654)" fill="#6c63ff"/>
    <path id="Path_1693" data-name="Path 1693" d="M490.69,389l-.417.246a1.6,1.6,0,0,0,1.413,1.841" transform="translate(-463.574 -368.654)" opacity="0.1"/>
    <path id="Path_1694" data-name="Path 1694" d="M467.469,170.169s-1.091.067-2.185.248q-.168.029-.334.061c-.065.012-.128.025-.191.039a4.53,4.53,0,0,0-1.4.467c-.365.234-.487-.4-.5-1.273,0-.308.005-.647.022-.989.021-.4.052-.8.085-1.156.072-.8.156-1.419.156-1.419s.382,0,.893-.018l.164-.006c.16-.006.33-.015.5-.025.081,0,.162-.009.243-.015.324-.023.643-.056.913-.1a1.993,1.993,0,0,0,.647-.183C467.063,165.458,467.469,170.169,467.469,170.169Z" transform="translate(-437.838 -159.019)" fill="#f8bdc5"/>
    <path id="Path_1695" data-name="Path 1695" d="M608.9,333.256l-.213,1.413s-.464.578-.4.9.6,14.518.6,14.518,1.049,6,.685,6.766a5.909,5.909,0,0,0-.021,2.57l2.184-.343.73-26.211Z" transform="translate(-574.409 -315.939)" fill="#474463"/>
    <path id="Path_1696" data-name="Path 1696" d="M608.9,333.256l-.213,1.413s-.464.578-.4.9.6,14.518.6,14.518,1.049,6,.685,6.766a5.909,5.909,0,0,0-.021,2.57l2.184-.343.73-26.211Z" transform="translate(-574.409 -315.939)" opacity="0.1"/>
    <path id="Path_1697" data-name="Path 1697" d="M631.717,749.819a1.824,1.824,0,0,0-.044.741c.017.248.044.458.044.458v1.456a20.347,20.347,0,0,1-3.619-1.67c-.53-.354-.681-.682-.652-.945a.77.77,0,0,1,.652-.618,5.023,5.023,0,0,0,1.3-.632c.391-.232.716-.439.716-.439S631.846,749.6,631.717,749.819Z" transform="translate(-592.407 -705.971)" fill="#575988"/>
    <path id="Path_1698" data-name="Path 1698" d="M661.852,749.819a1.823,1.823,0,0,0-.044.741,17.845,17.845,0,0,1-2.277-1.951c.391-.232.716-.439.716-.439S661.98,749.6,661.852,749.819Z" transform="translate(-622.542 -705.971)" opacity="0.1"/>
    <path id="Path_1699" data-name="Path 1699" d="M618,312.462l-.557,2.056a4.462,4.462,0,0,0-.365.921,2.5,2.5,0,0,1-.343.75,2.373,2.373,0,0,0-.214.942c-.021.579-.426,3.255-.878,3.7l-.107,1.735a.516.516,0,0,0-.128.73,3.211,3.211,0,0,1,.193,1.542s-.407.321-.15.643.085,1.264.085,1.264-.235.3-.128.471-.106,4.583-.106,4.583l-.515,2.162s-.236,1.8-.365,2.335a6.035,6.035,0,0,0-.128,1.2s-.557,1.178-.964,1.114a15.012,15.012,0,0,1-2.377-1.992l.278-6.51a21.889,21.889,0,0,0,.086-3.3,31.988,31.988,0,0,1-.257-3.212l-.3-4.218-2.995-4.711s-.217-1.371.4-1.777l.113-.74.1-.673,3.555-.386,5.439-1.413a1.753,1.753,0,0,1,.639.9A3.158,3.158,0,0,1,618,312.462Z" transform="translate(-573.888 -294.16)" fill="#474463"/>
    <path id="Path_1700" data-name="Path 1700" d="M570.718,355.732s-2.527,3.1-2.42,2.236a2.821,2.821,0,0,0-.548-1.63c-.159-.25-.29-.414-.29-.414s1.542-2.826,1.628-2.441a3.144,3.144,0,0,0,.435.72C570.006,354.871,570.718,355.732,570.718,355.732Z" transform="translate(-536.073 -335.264)" fill="#ffc1c8"/>
    <path id="Path_1701" data-name="Path 1701" d="M631.717,778.261v.3a20.35,20.35,0,0,1-3.619-1.67c-.53-.354-.681-.682-.652-.945a24.06,24.06,0,0,1,2.429,1.352A12.641,12.641,0,0,0,631.717,778.261Z" transform="translate(-592.407 -732.061)" fill="#fff" opacity="0.3"/>
    <circle id="Ellipse_86" data-name="Ellipse 86" cx="0.714" cy="0.714" r="0.714" transform="translate(38.047 45.928)" fill="#474463"/>
    <circle id="Ellipse_87" data-name="Ellipse 87" cx="0.714" cy="0.714" r="0.714" transform="translate(30.757 44.926)" fill="#474463"/>
    <path id="Path_1702" data-name="Path 1702" d="M478.67,758.659a.376.376,0,0,1-.042.145l-.426.464-5.953-.1-1.6-.026a41.065,41.065,0,0,1-4.026-.9,30.631,30.631,0,0,0-3.237-.809s-1.559-.262-1.788-1.018a.654.654,0,0,1,.046-.57.821.821,0,0,1,.51-.308,3.365,3.365,0,0,1,2.142.079l9.978,2.567.155.04s3.557-.066,3.629-.054C478.6,758.274,478.683,758.506,478.67,758.659Z" transform="translate(-436.613 -712.766)" fill="#6c63ff"/>
    <path id="Path_1703" data-name="Path 1703" d="M478.67,765.548a6.914,6.914,0,0,0-1.912-.082,11.632,11.632,0,0,0-4.512.6l-1.6-.026a41.047,41.047,0,0,1-4.026-.9,30.631,30.631,0,0,0-3.237-.809s-1.559-.262-1.788-1.018a.654.654,0,0,1,.046-.569c.106.31.311.76.639.886.514.2,2.627.6,2.627.6l4.182,1.024a9.276,9.276,0,0,0,3.355.182,10.8,10.8,0,0,1,1.825-.359l.155.04s3.557-.066,3.629-.054C478.6,765.163,478.683,765.4,478.67,765.548Z" transform="translate(-436.613 -719.655)" fill="#fff" opacity="0.3"/>
    <path id="Path_1704" data-name="Path 1704" d="M580.955,760a1.975,1.975,0,0,1-.033.267,27.094,27.094,0,0,1-3.6-.1.909.909,0,0,1-.628-.29.445.445,0,0,1-.044-.426.669.669,0,0,1,.052-.114c.092-.161.233-.274.31-.259.214.043.582-.4.582-.4-.029-.268.392-.365.458-.321a.086.086,0,0,0,.137-.054c0-.02.005-.117.005-.23,0-.189-.005-.426-.005-.426l2.378.289.094.455c.086.405.207.962.259,1.152A1.375,1.375,0,0,1,580.955,760Z" transform="translate(-544.674 -714.874)" fill="#474463"/>
    <path id="Path_1705" data-name="Path 1705" d="M582.178,794.136a1.974,1.974,0,0,1-.033.267,27.091,27.091,0,0,1-3.6-.1.909.909,0,0,1-.628-.29,3.884,3.884,0,0,1,.981.033C579.263,794.139,581.432,794.139,582.178,794.136Z" transform="translate(-545.897 -749.014)" opacity="0.1"/>
    <path id="Path_1706" data-name="Path 1706" d="M496.347,748.093a.122.122,0,0,1-.052.114c-.3.231-1.736-.02-1.736-.02a16.388,16.388,0,0,1-3.374-.482.31.31,0,0,1-.1-.1c-.182-.33.478-.883.535-.883s.846-.108.9-.118c.365-.074.73-.3.791-.235s.365-.086.514-.107c.054-.008.079-.085.088-.182a2.027,2.027,0,0,0-.013-.4l2.344.631.021.374.068,1.244.009.153A.054.054,0,0,1,496.347,748.093Z" transform="translate(-464.319 -703.633)" fill="#474463"/>
    <path id="Path_1707" data-name="Path 1707" d="M495.09,777.883a16.388,16.388,0,0,1-3.374-.482.31.31,0,0,1-.1-.1c.594.049,1.586.131,1.764.176.257.061,1.7.15,1.7.15h1.778l.009.153C496.952,778.21,495.09,777.883,495.09,777.883Z" transform="translate(-464.848 -733.329)" opacity="0.1"/>
    <circle id="Ellipse_88" data-name="Ellipse 88" cx="0.714" cy="0.714" r="0.714" transform="translate(27.183 44.926)" fill="#474463"/>
    <circle id="Ellipse_89" data-name="Ellipse 89" cx="0.714" cy="0.714" r="0.714" transform="translate(34.934 46.407)" fill="#474463"/>
    <path id="Path_1708" data-name="Path 1708" d="M468.311,389.21s-.135.243-.338.6c-.487.859-1.362,2.382-1.739,2.864-.535.685-.492.043-1.071-1.391-.43-1.067.893-2.288,1.6-2.843.243-.193.414-.3.414-.3Z" transform="translate(-439.922 -367.847)" fill="#f8bdc5"/>
    <path id="Path_1709" data-name="Path 1709" d="M470.2,432.83s-1.777.15-2.12.257a8.417,8.417,0,0,1-1.947,0c-.127-.043-2.656.535-1.5,1.113a1.78,1.78,0,0,0,1.886,0,5.723,5.723,0,0,1,1.886.15,4.989,4.989,0,0,0,1.8.107Z" transform="translate(-439.223 -409.817)" fill="#ffc1c8"/>
    <path id="Path_1710" data-name="Path 1710" d="M465.1,174.1a1.775,1.775,0,0,1-.176,1.549,5.014,5.014,0,0,0-1.592.506c-.964.621-.235-4.839-.235-4.839s.466,0,1.057-.024C463.976,172.107,464.654,172.954,465.1,174.1Z" transform="translate(-437.814 -164.19)" opacity="0.1"/>
    <path id="Path_1711" data-name="Path 1711" d="M388.293,159.009a3.651,3.651,0,1,1-.365-1.6,3.651,3.651,0,0,1,.365,1.6Z" transform="translate(-360.95 -149.223)" fill="#f8bdc5"/>
    <path id="Path_1712" data-name="Path 1712" d="M626.593,310.554a.837.837,0,0,1-.487.338c-.835.235-6.724,1.649-7.109,1.563-.34-.075-1.8-.285-2.136-.333l.1-.673,3.555-.386,5.439-1.413A1.757,1.757,0,0,1,626.593,310.554Z" transform="translate(-582.468 -294.132)" opacity="0.1"/>
    <path id="Path_1713" data-name="Path 1713" d="M506.481,170.11a20.519,20.519,0,0,0-2.078.231.143.143,0,0,0,0-.1l1.424-.176s-.208-3.346-.973-4.148a1.993,1.993,0,0,0,.647-.183C506.075,165.4,506.481,170.11,506.481,170.11Z" transform="translate(-476.85 -158.96)" opacity="0.1"/>
    <path id="Path_1714" data-name="Path 1714" d="M497.167,138.243s1.264-.114,1.435-.328,1.392-.278,1.392-.278a2,2,0,0,0,.73-.257,13.92,13.92,0,0,1,3.7-.171,2.573,2.573,0,0,0,.814.3c.193.022,1.691,1.092,1.841,1.092s4.259,3.876,4.259,3.876.426.985.6,1.028,1.713,3.94,1.713,3.94.214.942-.621,1.178-6.724,1.649-7.109,1.563-2.206-.343-2.206-.343.021,0-.021-.235-.107-.172-.022-.386.172-.193.065-.321,0-.193-.343-.407a4.316,4.316,0,0,1-.75-.514c-.019-.064-.321-.493-.471-.514s-4.347-1.2-4.347-1.2l-.985-.321s-.471-.321-.365-.514.47-1.932.47-1.932l1.506-.186s-.224-3.626-1.068-4.235S497.167,138.243,497.167,138.243Z" transform="translate(-469.398 -132.119)" fill="#6c63ff"/>
    <path id="Path_1715" data-name="Path 1715" d="M494.3,389.21s-.135.243-.338.6a1.269,1.269,0,0,0-1.21-1.371c.243-.193.414-.3.414-.3Z" transform="translate(-465.909 -367.847)" opacity="0.1"/>
    <path id="Path_1716" data-name="Path 1716" d="M491.036,272.34l.1.578s.407.493.407.643.471.578.6.813.578.279.406.686-1.156,3.512-1.156,3.512l-1.006,1.113s1.67-.15,1.413,1.841l2.163-1.886,1.694-3.082s-1.649-3.126-1.713-3.383S491.036,272.34,491.036,272.34Z" transform="translate(-463.693 -259.092)" fill="#6c63ff"/>
    <path id="Path_1717" data-name="Path 1717" d="M583.31,273.3a11.956,11.956,0,0,0,1.37-1.071A11.949,11.949,0,0,0,583.31,273.3Z" transform="translate(-550.959 -258.986)" opacity="0.1"/>
    <path id="Path_1718" data-name="Path 1718" d="M621,299.629s.73-.172.791-.557S621,299.629,621,299.629Z" transform="translate(-586.356 -284.111)" opacity="0.1"/>
    <path id="Path_1719" data-name="Path 1719" d="M630.82,316.5s1.028-.509.985-.6S630.82,316.5,630.82,316.5Z" transform="translate(-595.578 -299.993)" opacity="0.1"/>
    <path id="Path_1720" data-name="Path 1720" d="M716.287,272.23s-.426.278-.3.538S716.287,272.23,716.287,272.23Z" transform="translate(-675.542 -258.989)" opacity="0.1"/>
    <path id="Path_1721" data-name="Path 1721" d="M726.885,274.1s-1.213,1.156-.939,1.178S726.885,274.1,726.885,274.1Z" transform="translate(-684.879 -260.745)" opacity="0.1"/>
    <path id="Path_1722" data-name="Path 1722" d="M696.64,568.68a9.81,9.81,0,0,1,1.606.407A9.812,9.812,0,0,1,696.64,568.68Z" transform="translate(-657.394 -537.402)" opacity="0.1"/>
    <path id="Path_1723" data-name="Path 1723" d="M705.79,585.57s.835.514.856.664S705.79,585.57,705.79,585.57Z" transform="translate(-665.987 -553.264)" opacity="0.1"/>
    <path id="Path_1724" data-name="Path 1724" d="M702.62,604.58s.128.578.343.664S702.62,604.58,702.62,604.58Z" transform="translate(-663.01 -571.118)" opacity="0.1"/>
    <path id="Path_1725" data-name="Path 1725" d="M387.659,157.328a.041.041,0,0,1,0,.019.539.539,0,0,1-.286.46.455.455,0,0,1-.324-.03c-.3-.133-.575-.453-.9-.376a.539.539,0,0,0-.34.3,1.5,1.5,0,0,0-.122.327,1.168,1.168,0,0,0-.016.725.741.741,0,0,0,.055.107c.086.138.208.256.293.395a.426.426,0,0,1-.032.554.334.334,0,0,1-.284.04,1.687,1.687,0,0,1-.346-.153.708.708,0,0,0-.691-.052c-.071.044-.127.107-.195.153a.7.7,0,0,1-.47.1c-.387-.04-.532-.285-.827-.475-.217-.14-.669-.2-.8.086-.083.183.04.413-.041.6s-.338.243-.458.416c-.157.228-.011.557-.126.809a.413.413,0,0,1-.07.107,3.662,3.662,0,0,1,5.178-5.172l.164-.006c.16-.006.33-.015.5-.025a1.394,1.394,0,0,1,.094.267A2.227,2.227,0,0,1,387.659,157.328Z" transform="translate(-360.677 -149.157)" opacity="0.1"/>
    <path id="Path_1726" data-name="Path 1726" d="M358.422,139.251c-.083.183.04.413-.041.6s-.34.243-.458.416c-.158.228-.012.557-.126.809-.131.288-.528.333-.832.249a1.7,1.7,0,0,1-1.135-1.062,7.469,7.469,0,0,1-.127-1.853,3.073,3.073,0,0,0-.17-.778,3.3,3.3,0,0,1-.237-.742,1.1,1.1,0,0,1,.6-1.084c.251-.122.559-.156.742-.365a1.6,1.6,0,0,0,.235-.591,1.4,1.4,0,0,1,1.278-.989c.461,0,.913.276,1.363.169.255-.061.487-.243.75-.217a.951.951,0,0,1,.355.132,13.821,13.821,0,0,1,1.99,1.308,2.242,2.242,0,0,0,.422.287,2.616,2.616,0,0,1,.284.131.916.916,0,0,1,.355.579,2.209,2.209,0,0,1,.045.829.551.551,0,0,1-.289.479.455.455,0,0,1-.325-.031c-.3-.132-.574-.452-.9-.375-.265.061-.393.361-.462.625a1.161,1.161,0,0,0-.016.725,4.214,4.214,0,0,0,.347.5c.1.175.134.436-.032.554-.183.132-.43-.009-.63-.113a.709.709,0,0,0-.691-.053c-.07.044-.127.107-.195.154a.708.708,0,0,1-.47.1c-.388-.04-.532-.285-.828-.475C359,139.024,358.552,138.964,358.422,139.251Z" transform="translate(-336.814 -128.989)" fill="#474463"/>
    <path id="Path_1727" data-name="Path 1727" d="M569.533,354.191c-.016.091-.142.1-.167.19a2.819,2.819,0,0,1-1.605,1.947,5.047,5.047,0,0,0-.29-.414s1.542-2.826,1.628-2.441A3.181,3.181,0,0,0,569.533,354.191Z" transform="translate(-536.083 -335.255)" opacity="0.1"/>
    <path id="Path_1728" data-name="Path 1728" d="M514.853,312.476a2.816,2.816,0,1,1-.825-2A2.827,2.827,0,0,1,514.853,312.476Z" transform="translate(-481.358 -294.132)" fill="#ffc1c8"/>
    <path id="Path_1729" data-name="Path 1729" d="M540.254,746.341l.021.374a1.527,1.527,0,0,1-.993-.041c-.355-.217-.879-.27-1.359-.566a2.03,2.03,0,0,0-.013-.4Z" transform="translate(-508.321 -703.661)" opacity="0.1"/>
    <path id="Path_1730" data-name="Path 1730" d="M604.971,758.376c-.016.083-.032.134-.032.134a12.671,12.671,0,0,1-2.434-.454c0-.189-.005-.426-.005-.426l2.378.289Z" transform="translate(-568.981 -714.856)" opacity="0.1"/>
    <path id="Path_1731" data-name="Path 1731" d="M539.643,579.492c-.128.343-.193.407-.064.578s.064,1.071-.141,1.156-.974.6-.974.6a2.6,2.6,0,0,1,.439.791.717.717,0,0,0,.166.407s.66,1.413.791,1.863.252,1.156.252,1.156a1.753,1.753,0,0,0-.071,1.007,1.571,1.571,0,0,1,0,.9,9.311,9.311,0,0,1-2.555-.538c-.255-.3-.085-.983-.085-.983a2.459,2.459,0,0,0-.321-.857c-.257-.407.061-.835,0-.857a1.811,1.811,0,0,1-.451-.642c-.193-.385-.314-.236-.314-.236s.251,2.163,0,2.356-.285.107-.22.365a6.629,6.629,0,0,1,.107.75,1.823,1.823,0,0,1-1.156,0,12.591,12.591,0,0,1-1.474-.642c-.509-.364.231-.985.359-1.071s-.043-1.328-.043-1.328l-.172-1.22s.578.128.388-.343-.409-2.1-.516-2.355.365-.6.3-.771a4.543,4.543,0,0,1,.278-1.156s.022-.813.235-.966a.755.755,0,0,0,.17-.431,5.354,5.354,0,0,0,.066-.7s4.9-.343,5.7.128c.357.212.332.6.182,1a7.794,7.794,0,0,1-.652,1.152C539.686,578.928,539.771,579.15,539.643,579.492Z" transform="translate(-504.08 -544.467)" fill="#575988"/>
    <path id="Path_1732" data-name="Path 1732" d="M558.6,577.448a6.319,6.319,0,0,0-1.551.566c-.214.236-.943-1.328-.943-1.328s.043,1.176-.921.684a5.661,5.661,0,0,0-2.529-.347,5.363,5.363,0,0,0,.066-.7s4.9-.343,5.7.128C558.778,576.663,558.753,577.053,558.6,577.448Z" transform="translate(-522.174 -544.467)" opacity="0.1"/>
    <path id="Path_1733" data-name="Path 1733" d="M552.212,378.283s.426-.514.514-.321a2.908,2.908,0,0,0,.591.578s.144.45.4.514a24.876,24.876,0,0,1,2.159,2.634l-.686,1.391-.557,3.383a1.528,1.528,0,0,1-.127.73c-.151.195-.73.15-.462.385a2.12,2.12,0,0,1,.868,1.521,9.947,9.947,0,0,0,.471,1.691,11.824,11.824,0,0,0-2.227.75c-.214.235-.942-1.328-.942-1.328s.043,1.175-.921.684a5.934,5.934,0,0,0-2.613-.341V389.29s.321-.493.15-.835.117-.985.117-.985a5.04,5.04,0,0,0-.267-1.049,10.48,10.48,0,0,1-.107-2.206,8.074,8.074,0,0,1-.012-1.778,5.319,5.319,0,0,1,.528-1.489,1.928,1.928,0,0,0,.321-1.059c-.064-.172.565-.543.565-.543l.349.564.089.337S552.255,378.926,552.212,378.283Z" transform="translate(-518.276 -358.247)" fill="#dce6f2"/>
    <path id="Path_1734" data-name="Path 1734" d="M584,432.83s1.2,1.177,1.328,1.37.559,1.2,0,1.5a7.818,7.818,0,0,1-2.955.612c-.217-.162-1.521.182-1.521.182s-2.182.535-1.711-.343a1.633,1.633,0,0,1,1.585-.73,8.255,8.255,0,0,0,1.992-.183c.192-.179,1.643-.565,1.314-1.358S584,432.83,584,432.83Z" transform="translate(-546.982 -409.817)" fill="#ffc1c8"/>
    <path id="Path_1735" data-name="Path 1735" d="M562.995,519.41s-2.793,2.42-2.515,2.42A21.063,21.063,0,0,0,562.995,519.41Z" transform="translate(-529.499 -491.13)" opacity="0.1"/>
    <path id="Path_1736" data-name="Path 1736" d="M621.346,535.6s-.888.214-.716.343S621.346,535.6,621.346,535.6Z" transform="translate(-585.988 -506.335)" opacity="0.1"/>
    <path id="Path_1737" data-name="Path 1737" d="M581.29,439.16s1.108.1.913.446S581.29,439.16,581.29,439.16Z" transform="translate(-549.062 -415.762)" opacity="0.1"/>
    <path id="Path_1738" data-name="Path 1738" d="M568.909,610.09a.957.957,0,0,0,0,.669c.15.234,0,.791,0,.791V613.5s-.021,1.413.492,1.906Z" transform="translate(-537.371 -576.292)" opacity="0.1"/>
    <path id="Path_1739" data-name="Path 1739" d="M545.83,709.81a3.655,3.655,0,0,1,.343.6C546.216,710.57,545.83,709.81,545.83,709.81Z" transform="translate(-515.759 -669.945)" opacity="0.1"/>
    <path id="Path_1740" data-name="Path 1740" d="M547.06,694.192a2.634,2.634,0,0,1,.8-.054C547.97,694.213,547.06,694.192,547.06,694.192Z" transform="translate(-516.915 -655.205)" opacity="0.1"/>
    <path id="Path_1741" data-name="Path 1741" d="M542.932,738.49s-.2.021.2.243,1.2.5,1.21.407A8.817,8.817,0,0,0,542.932,738.49Z" transform="translate(-512.99 -696.88)" opacity="0.1"/>
    <path id="Path_1742" data-name="Path 1742" d="M592.69,703.314c.072,0,.968-.054.916.086S592.69,703.314,592.69,703.314Z" transform="translate(-559.768 -663.835)" opacity="0.1"/>
    <path id="Path_1743" data-name="Path 1743" d="M612.7,679.172s.2-.353.278-.2S612.7,679.172,612.7,679.172Z" transform="translate(-578.561 -640.946)" opacity="0.1"/>
    <path id="Path_1744" data-name="Path 1744" d="M514.863,312.408a2.818,2.818,0,0,1-.108.777.424.424,0,0,1-.467.029,1.258,1.258,0,0,1-.392-.426.97.97,0,0,0-.418-.393.76.76,0,0,0-.691.144c-.2.144-.359.333-.548.487a.89.89,0,0,1-.669.24,1.148,1.148,0,0,1-.426-.2,3.821,3.821,0,0,0-.579-.371c-.2-.077-.365.061-.555.061-.151.055-.316.18-.286.337a.522.522,0,0,0,.078.163.684.684,0,0,1-.089.754,2.827,2.827,0,1,1,5.152-1.608Z" transform="translate(-481.367 -294.064)" opacity="0.1"/>
    <path id="Path_1745" data-name="Path 1745" d="M501.453,295.47c-.151.055-.316.179-.287.338a.542.542,0,0,0,.078.162.683.683,0,0,1-.3.919.269.269,0,0,1-.169.027.3.3,0,0,1-.122-.073,1.126,1.126,0,0,1-.351-.605,7.288,7.288,0,0,1-.047-.751c-.027-.25-.113-.5-.142-.748a.694.694,0,0,1,.038-.37.861.861,0,0,1,.153-.211,1.976,1.976,0,0,0,.435-.627c.136-.385.037-.874.334-1.156a1.857,1.857,0,0,1,.5-.259,3.524,3.524,0,0,0,.459-.291,2.528,2.528,0,0,1,1.875-.535,2.667,2.667,0,0,1,.743.3,8.351,8.351,0,0,1,1.217.818,1.893,1.893,0,0,1,.426.437,1.517,1.517,0,0,1,.186.465,2.667,2.667,0,0,1,.035,1.1,7.083,7.083,0,0,0-.2,1.065.688.688,0,0,1-.053.358.4.4,0,0,1-.52.09,1.239,1.239,0,0,1-.392-.426.962.962,0,0,0-.418-.392.76.76,0,0,0-.691.143c-.2.143-.358.333-.548.487a.887.887,0,0,1-.669.24,1.148,1.148,0,0,1-.426-.2,3.759,3.759,0,0,0-.578-.371C501.814,295.33,501.643,295.47,501.453,295.47Z" transform="translate(-472.811 -276.857)" fill="#794f6a"/>
    <path id="Path_1746" data-name="Path 1746" d="M589.053,432.83s-3.147,2.912-2.506,4.368,3.468-1.113,3.468-1.113l1.008-2.331Z" transform="translate(-553.918 -409.817)" fill="#f8bdc5"/>
    <g id="Group_5611" data-name="Group 5611" transform="translate(27.29 16.997)" opacity="0.1">
      <path id="Path_1747" data-name="Path 1747" d="M500.967,347.2a.268.268,0,0,1-.169.027.291.291,0,0,1-.122-.074,1.128,1.128,0,0,1-.352-.6,7.523,7.523,0,0,1-.046-.752c-.027-.25-.113-.5-.142-.748a.161.161,0,0,0,0-.038.966.966,0,0,0,0,.209c.029.252.116.5.142.748a7.443,7.443,0,0,0,.046.751,1.127,1.127,0,0,0,.352.605.3.3,0,0,0,.122.073.268.268,0,0,0,.169-.027.687.687,0,0,0,.375-.7A.675.675,0,0,1,500.967,347.2Z" transform="translate(-500.13 -344.338)"/>
      <path id="Path_1748" data-name="Path 1748" d="M522.928,334.343a7.014,7.014,0,0,0-.2,1.065.682.682,0,0,1-.053.358.4.4,0,0,1-.519.09,1.242,1.242,0,0,1-.392-.426.958.958,0,0,0-.418-.392.759.759,0,0,0-.69.144c-.2.144-.359.333-.548.487a.892.892,0,0,1-.669.24,1.16,1.16,0,0,1-.426-.2,3.806,3.806,0,0,0-.578-.371c-.2-.077-.365.061-.555.061-.152.055-.316.179-.287.338a.253.253,0,0,0,.016.05.473.473,0,0,1,.271-.217c.19,0,.358-.136.555-.061a3.663,3.663,0,0,1,.578.371,1.131,1.131,0,0,0,.426.2.878.878,0,0,0,.669-.24c.187-.155.349-.347.548-.487a.768.768,0,0,1,.69-.143.966.966,0,0,1,.418.392,1.292,1.292,0,0,0,.392.426.392.392,0,0,0,.519-.09.727.727,0,0,0,.054-.358,6.789,6.789,0,0,1,.2-1.065,2.691,2.691,0,0,0,.039-.555A2.7,2.7,0,0,1,522.928,334.343Z" transform="translate(-516.522 -333.96)"/>
    </g>
    <path id="Path_1749" data-name="Path 1749" d="M560.829,170.513s-1.156,2.1.426,3.169,1.735.964,1.735.964a1.539,1.539,0,0,0,0,.321c.022.064.426.214.426.214a3.463,3.463,0,0,0,1.2,1.135,1.675,1.675,0,0,1,.835,1.156.73.73,0,0,0,.365.535,2.676,2.676,0,0,1,.646,1.006v.686c0,.107.128.426-.15.46s-.043.675-.043.675-.3.365-.235.535-.128.514-.128.514-.235.343-.214.407-.257.3-.193.45-.321.343-.257.514-.274.257-.274.257l-.925,2.142s1.947.426,2.45,1.5l2.454-4.5s1.37-3.362,1.413-3.576a3.361,3.361,0,0,0-.3-.985l-1.67-3.042-2.505-3.533S563.892,167.28,560.829,170.513Z" transform="translate(-529.463 -162.319)" opacity="0.1"/>
    <path id="Path_1750" data-name="Path 1750" d="M578.658,185.866s-3.008,1.056-1.424,2.126,1.735.963,1.735.963a1.583,1.583,0,0,0,0,.321c.021.064.426.214.426.214a3.467,3.467,0,0,0,1.2,1.135,1.675,1.675,0,0,1,.835,1.156.73.73,0,0,0,.365.535,2.65,2.65,0,0,1,.642,1.006v.685c0,.107.128.426-.15.461s-.043.675-.043.675-.3.365-.235.535-.128.514-.128.514-.235.343-.214.407-.257.3-.193.45-.321.343-.257.514-.274.257-.274.257l-.925,2.141s1.6.083,2.11,1.156l2.793-4.151s1.371-3.362,1.413-3.576a3.406,3.406,0,0,0-.3-.987l-1.67-3.042-3.81-2.2S581.721,182.632,578.658,185.866Z" transform="translate(-544.82 -176.786)" opacity="0.1"/>
    <path id="Path_1751" data-name="Path 1751" d="M563.649,170.516s-1.156,2.1.426,3.169,1.735.964,1.735.964a1.587,1.587,0,0,0,0,.321c.021.064.426.214.426.214a3.468,3.468,0,0,0,1.2,1.135,1.675,1.675,0,0,1,.835,1.156.73.73,0,0,0,.365.535,2.672,2.672,0,0,1,.646,1.006v.686c0,.107.128.426-.15.46s-.043.675-.043.675-.3.365-.235.535-.128.514-.128.514-.235.343-.214.407-.257.3-.193.45-.321.343-.257.514-.274.257-.274.257l-.925,2.142s1.943.426,2.449,1.5l2.454-4.5s1.371-3.362,1.413-3.576a3.379,3.379,0,0,0-.3-.985l-1.67-3.042-2.5-3.532S566.711,167.283,563.649,170.516Z" transform="translate(-532.112 -162.322)" fill="#6c63ff"/>
    <g id="Group_5612" data-name="Group 5612" transform="translate(18.478 7.704)" opacity="0.1">
      <path id="Path_1752" data-name="Path 1752" d="M355.7,182.774a3.054,3.054,0,0,0-.17-.779,3.3,3.3,0,0,1-.237-.742v-.023a.988.988,0,0,0,0,.195,3.33,3.33,0,0,0,.237.742,3.048,3.048,0,0,1,.17.778c.009.1.012.2.013.3C355.719,183.088,355.717,182.93,355.7,182.774Z" transform="translate(-355.291 -181.23)"/>
      <path id="Path_1753" data-name="Path 1753" d="M364.231,225.373c-.131.287-.528.333-.832.248a1.707,1.707,0,0,1-1.135-1.061,2.512,2.512,0,0,1-.122-.81,2.783,2.783,0,0,0,.122.981,1.708,1.708,0,0,0,1.135,1.062c.3.084.7.039.832-.249a.928.928,0,0,0,.047-.4A.627.627,0,0,1,364.231,225.373Z" transform="translate(-361.725 -221.163)"/>
      <path id="Path_1754" data-name="Path 1754" d="M462.128,181.524a.55.55,0,0,1-.289.479.455.455,0,0,1-.324-.03c-.3-.133-.575-.453-.9-.375-.265.061-.392.361-.462.625a1.539,1.539,0,0,0-.065.515,2,2,0,0,1,.065-.344c.07-.263.2-.562.462-.625.325-.077.593.243.9.375a.452.452,0,0,0,.324.031.55.55,0,0,0,.289-.479,2.209,2.209,0,0,0,.018-.375C462.143,181.388,462.137,181.457,462.128,181.524Z" transform="translate(-453.71 -181.314)"/>
      <path id="Path_1755" data-name="Path 1755" d="M409.869,217.607c-.183.132-.43-.009-.63-.114a.709.709,0,0,0-.691-.053c-.07.044-.127.107-.195.154a.7.7,0,0,1-.47.1c-.388-.04-.532-.285-.827-.475-.217-.139-.669-.2-.8.087a.52.52,0,0,0-.025.263.345.345,0,0,1,.025-.092c.13-.287.582-.227.8-.087.3.19.44.435.827.475a.7.7,0,0,0,.47-.1c.068-.046.125-.11.195-.153a.71.71,0,0,1,.691.053c.2.1.447.243.63.113a.337.337,0,0,0,.109-.347A.281.281,0,0,1,409.869,217.607Z" transform="translate(-403.127 -214.919)"/>
      <path id="Path_1756" data-name="Path 1756" d="M397.791,228.918c-.083.191-.34.243-.458.416a.737.737,0,0,0-.078.447.506.506,0,0,1,.078-.276c.118-.172.374-.225.458-.416a.529.529,0,0,0,.023-.259A.345.345,0,0,1,397.791,228.918Z" transform="translate(-394.701 -225.934)"/>
    </g>
  </g>
</svg>
