<svg xmlns="http://www.w3.org/2000/svg" width="58.698" height="71.715" viewBox="0 0 58.698 71.715">
  <g id="undraw_in_real_life_v8fk" transform="translate(0)">
    <path id="Path_1827" data-name="Path 1827" d="M302.314,282.868a2.169,2.169,0,0,0-.044,3.052l13.318,13.6a2.164,2.164,0,0,0,3.083.03l41.053-41.659a2.164,2.164,0,0,0-.346-3.347L344.107,244.42a2.152,2.152,0,0,0-2.693.265Z" transform="translate(-301.664 -228.467)" fill="#3f3d56"/>
    <path id="Path_1828" data-name="Path 1828" d="M377.269,276l-1.7-1.086a1.622,1.622,0,0,1-2.335,2.13l-11.018-7.575a1.621,1.621,0,0,1,.429-2.883l-.877-.559a.59.59,0,0,0-.737.083l-37.065,36.425a.59.59,0,0,0,.015.844L337.439,316.5a.59.59,0,0,0,.822-.011l39.108-39.569a.59.59,0,0,0-.1-.916Z" transform="translate(-321.615 -248.187)" fill="#fff"/>
    <path id="Path_1829" data-name="Path 1829" d="M130.873,242.2l11.37,10.721L169.289,226.2l-13.726-8.934Z" transform="translate(-117.998 -195.897)" fill="#e6e6e6"/>
    <path id="Path_1830" data-name="Path 1830" d="M811.3,432.823a.4.4,0,0,0,.557,0l2.365-2.365a.394.394,0,0,0,0-.556.4.4,0,0,0-.557,0l-2.365,2.365A.394.394,0,0,0,811.3,432.823Z" transform="translate(-761.063 -395.92)" fill="#3f3d56"/>
    <path id="Path_1831" data-name="Path 1831" d="M770.8,473.288a.394.394,0,0,0,.557,0l2.365-2.365a.394.394,0,0,0-.557-.557l-2.365,2.365A.394.394,0,0,0,770.8,473.288Z" transform="translate(-724.547 -432.401)" fill="#3f3d56"/>
    <circle id="Ellipse_96" data-name="Ellipse 96" cx="2.656" cy="2.656" r="2.656" transform="translate(10.482 52.854)" fill="#6c63ff"/>
    <ellipse id="Ellipse_97" data-name="Ellipse 97" cx="7.329" cy="3.984" rx="7.329" ry="3.984" transform="translate(20.811 38.786)" fill="#fff"/>
    <path id="Path_1832" data-name="Path 1832" d="M431.145,148.114l-.088.8-.052.471-.254,2.3s-.193.359-.539.862a8.641,8.641,0,0,1-2.815,2.722c-1.987,1.041-2.771-6.437-2.771-6.437s-.429-2.9.626-3.006.692,1.143.772,3.2a7.4,7.4,0,0,0,1.458,3.793,28.515,28.515,0,0,0,2.111-3.4,2.3,2.3,0,0,1,1.055-1.18h0a1.293,1.293,0,0,1,.324-.106A.768.768,0,0,1,431.145,148.114Z" transform="translate(-412.453 -139.884)" fill="#ffb8b8"/>
    <path id="Path_1833" data-name="Path 1833" d="M458.492,173.184l3.235,1.881,1.761-3.139-.4-1.416h0a2.433,2.433,0,0,0-3.179.156Z" transform="translate(-443.064 -161.681)" fill="#6c63ff"/>
    <path id="Path_1834" data-name="Path 1834" d="M450.584,85.793h0a3.886,3.886,0,0,0-1.835,5.164l1.091,2.64.812-.336.066-1.173.287,1.027,5.219-2.158.06-1.066.261.933.588-.243-.857-2.073A4.472,4.472,0,0,0,450.584,85.793Z" transform="translate(-433.972 -85.501)" fill="#2f2e41"/>
    <path id="Path_1835" data-name="Path 1835" d="M489.448,210.229l.329,2.391,5.178-2.36-.831-1.744S489.756,209.113,489.448,210.229Z" transform="translate(-470.974 -196.414)" fill="#a0616a"/>
    <path id="Path_1836" data-name="Path 1836" d="M172.549,234.294l3.241,3.056.781-2.631-2.4-2.085Z" transform="translate(-155.574 -209.749)" fill="#ffb8b8"/>
    <path id="Path_1837" data-name="Path 1837" d="M273.458,364.536l1.972,4.24,2.065-.853-2.066-4.2Z" transform="translate(-246.556 -327.94)" fill="#ffb8b8"/>
    <path id="Path_1838" data-name="Path 1838" d="M475.775,253.144l2.219,2.709,7.616,14.435a3.939,3.939,0,0,0,2.214-1.025l-.666-2.142-4.513-11.981s1.4-1.676.664-2.912-1.937-2.826-1.937-2.826Z" transform="translate(-458.646 -233.278)" fill="#2f2e41"/>
    <path id="Path_1839" data-name="Path 1839" d="M562.985,481.464l-.563.233a12.737,12.737,0,0,1-1.383,2.77c-.486.421-2.736,3.219-.273,2.53a5.861,5.861,0,0,0,3.46-2.529,2.32,2.32,0,0,0,1.822-.643c.877-.8-.151-1.7-.151-1.7s-1.234-1.5-1.248-1.478S564.422,481.749,562.985,481.464Z" transform="translate(-534.256 -441.777)" fill="#2f2e41"/>
    <circle id="Ellipse_98" data-name="Ellipse 98" cx="2.336" cy="2.336" r="2.336" transform="translate(14.426 2.96) rotate(-22.459)" fill="#ffb8b8"/>
    <path id="Path_1840" data-name="Path 1840" d="M486.679,130.442l-.651,1.238-.088.166.372,1.165-3.66,1.513s.32-.639.6-1.278c.005-.014.011-.03.018-.045.038-.087.071-.167.1-.238l.044-.111c.022-.056.043-.11.065-.164a0,0,0,0,0,0,0,3.96,3.96,0,0,0,.139-.429h0a1.178,1.178,0,0,0,.024-.119c.088-.586-.957-1.253-.957-1.253L484.324,129a3,3,0,0,0,2.125,1.407C486.592,130.433,486.679,130.442,486.679,130.442Z" transform="translate(-464.847 -124.719)" fill="#ffb8b8"/>
    <path id="Path_1841" data-name="Path 1841" d="M520.459,153.88c-1.253.957-2.51-1.819-2.51-1.819l-3.51-3.049a9.617,9.617,0,0,1-1.894-2.236l-1.59-2.594-.068.216h0l-.192.22-2.436-1.74-.683-.487-.31-.751L508.4,140.4l.563-.233.032-.018a1.818,1.818,0,0,1,2.653.666c.3.632.519,1.168.675,1.595a13.412,13.412,0,0,0,1.755,3.32,4.6,4.6,0,0,0,.709.821c.647.5,4.095,5.121,4.095,5.121S521.711,152.922,520.459,153.88Z" transform="translate(-487.04 -134.484)" fill="#ffb8b8"/>
    <path id="Path_1842" data-name="Path 1842" d="M490.6,162.125a2.578,2.578,0,0,1-.2.6A4.9,4.9,0,0,0,490.6,162.125Z" transform="translate(-471.828 -154.587)" fill="#d0cde1"/>
    <path id="Path_1843" data-name="Path 1843" d="M483.7,147.2l-.04.151-.029,3.1s-1.227,2.221-2.619,2.576c-.791.178-2.274-.6-2.407.2l-.552-2.535-.48-.59-.189-.232c-.67-.822-.064-2.281-.064-2.281l.69-1.8h0a1.293,1.293,0,0,1,.325-.106c-.03.072-.063.151-.1.238-.007.015-.013.031-.018.045-.208.516.021.541.2.5a.894.894,0,0,0,.171-.061,5.337,5.337,0,0,0,1.64-1.35c.347-.372.6-.675.6-.675l.509-1.09.076-.163c.143.028.231.037.231.037l.094-.039.032-.018-.3.494a1.719,1.719,0,0,0-.07,1.64h0Z" transform="translate(-459.816 -137.436)" fill="#6c63ff"/>
    <path id="Path_1844" data-name="Path 1844" d="M412.517,219.346l-1.151,1.1s-8.642.2-8.8,3.01,7.24,6.348,7.24,6.348l1.826-1.964-2.1-2.428s7.345,2.349,8.55-1.117-1.778-6.428-1.778-6.428A4.024,4.024,0,0,0,412.517,219.346Z" transform="translate(-392.639 -204.793)" fill="#2f2e41"/>
    <path id="Path_1845" data-name="Path 1845" d="M501.387,329.221l-.573,1.006s1.992,2.693,1.9,3.279-.108,2.132.886,1.612,1.46-2.582,1.321-3.184a22.137,22.137,0,0,1-.18-2.563s.04-3.094-.844-2.838-2.255.749-2.255.749Z" transform="translate(-481.222 -302.808)" fill="#2f2e41"/>
    <path id="Path_1846" data-name="Path 1846" d="M454.863,92.456a1.924,1.924,0,0,0-1.7-.136l-.067.028a2.673,2.673,0,0,0-1.252,3.555h0l.43-.178-.149-.557.32.487L455,94.6l.029-.536.131.469.5-.207a4.545,4.545,0,0,1,.433,3.906l.855-.353.058-1.071.263.939,1.629-.674-.53-2.19A3.762,3.762,0,0,0,454.863,92.456Z" transform="translate(-436.859 -91.526)" fill="#2f2e41"/>
    <path id="Path_1847" data-name="Path 1847" d="M523.043,142.959,518.112,145l-1.582-3.826.648-1.562h0a2.8,2.8,0,0,1,3.61.614Z" transform="translate(-495.392 -133.921)" fill="#6c63ff"/>
  </g>
</svg>
