<svg xmlns="http://www.w3.org/2000/svg" width="64.797" height="56.439" viewBox="0 0 64.797 56.439">
  <g id="undraw_Developer_activity_re_39tg" transform="translate(0 0)">
    <path id="Path_1757" data-name="Path 1757" d="M233.155,108.957a26.985,26.985,0,0,1-7.531,18.734q-.438.458-.9.894-.7.669-1.453,1.285a26.964,26.964,0,0,1-16.576,6.147q-.3.007-.608.007c-4.832,0-10.91-2.581-16.426-6.154q-.685-.443-1.357-.907-.314-.215-.625-.436a55.645,55.645,0,0,1-6.043-4.937,39.164,39.164,0,0,1-3.485-3.727c-4.238-5.228-5.173-9.938.869-10.907q1.073-.171,2.083-.366,1.463-.281,2.8-.607,1.8-.438,3.384-.949.533-.171,1.041-.35a25.429,25.429,0,0,0,10.642-6.542q.58-.632,1.07-1.279A17.984,17.984,0,0,0,201.4,96.8a19.42,19.42,0,0,0,1.4-3.127l.021-.059c1.815-5.237,1.263-10.094,3.266-11.72,8.562-6.95,19.22,2.948,24.223,14.62q.378.882.712,1.775.15.4.289.8.366,1.043.664,2.092.114.4.218.8c.074.287.145.574.21.86A27.284,27.284,0,0,1,233.155,108.957Z" transform="translate(-174.731 -79.585)" fill="#f2f2f2"/>
    <path id="Path_1758" data-name="Path 1758" d="M371.3,686.612q-.3.007-.608.007c-4.832,0-10.91-2.581-16.426-6.154q-.685-.443-1.357-.907l.393-2.392,11.9-1.58,5.973,4.567Z" transform="translate(-339.335 -630.179)" fill="#2f2e41"/>
    <path id="Path_1759" data-name="Path 1759" d="M578.863,259.635h-1.7a.2.2,0,0,0-.2.2v1.7a.2.2,0,0,0,.2.2h1.7a.2.2,0,0,0,.2-.2v-1.7A.2.2,0,0,0,578.863,259.635Z" transform="translate(-546.325 -245.918)" fill="#fff"/>
    <path id="Path_1760" data-name="Path 1760" d="M578.863,297.585h-1.7a.2.2,0,0,0-.2.2v1.7a.2.2,0,0,0,.2.2h1.7a.2.2,0,0,0,.2-.2v-1.7A.2.2,0,0,0,578.863,297.585Z" transform="translate(-546.325 -280.977)" fill="#e6e6e6"/>
    <path id="Path_1761" data-name="Path 1761" d="M578.863,335.535h-1.7a.2.2,0,0,0-.2.2v1.7a.2.2,0,0,0,.2.2h1.7a.2.2,0,0,0,.2-.2v-1.7A.2.2,0,0,0,578.863,335.535Z" transform="translate(-546.325 -316.035)" fill="#e6e6e6"/>
    <path id="Path_1762" data-name="Path 1762" d="M579.058,373.648a.2.2,0,0,0-.2-.163h-1.7a.2.2,0,0,0-.2.2v1.7a.2.2,0,0,0,.2.2h1.7a.2.2,0,0,0,.2-.2v-1.7A.178.178,0,0,0,579.058,373.648Z" transform="translate(-546.325 -351.094)" fill="#e6e6e6"/>
    <path id="Path_1763" data-name="Path 1763" d="M578.94,411.45a.2.2,0,0,0-.077-.015h-1.7a.2.2,0,0,0-.2.2v1.7a.2.2,0,0,0,.2.2h1.7a.2.2,0,0,0,.2-.2v-1.7A.2.2,0,0,0,578.94,411.45Z" transform="translate(-546.325 -386.153)" fill="#e6e6e6"/>
    <path id="Path_1764" data-name="Path 1764" d="M625.623,259.635h-1.7a.2.2,0,0,0-.2.2v1.7a.2.2,0,0,0,.2.2h1.7a.2.2,0,0,0,.2-.2v-1.7A.2.2,0,0,0,625.623,259.635Z" transform="translate(-589.523 -245.918)" fill="#e6e6e6"/>
    <path id="Path_1765" data-name="Path 1765" d="M625.623,297.585h-1.7a.2.2,0,0,0-.2.2v1.7a.2.2,0,0,0,.2.2h1.7a.2.2,0,0,0,.2-.2v-1.7A.2.2,0,0,0,625.623,297.585Z" transform="translate(-589.523 -280.977)" fill="#6c63ff"/>
    <path id="Path_1766" data-name="Path 1766" d="M625.623,335.535h-1.7a.2.2,0,0,0-.2.2v1.7a.2.2,0,0,0,.2.2h1.7a.2.2,0,0,0,.2-.2v-1.7A.2.2,0,0,0,625.623,335.535Z" transform="translate(-589.523 -316.035)" fill="#6c63ff"/>
    <path id="Path_1767" data-name="Path 1767" d="M625.623,373.485h-1.7a.2.2,0,0,0-.187.136.188.188,0,0,0-.011.062v1.7a.2.2,0,0,0,.2.2h1.7a.2.2,0,0,0,.2-.2v-1.7A.2.2,0,0,0,625.623,373.485Z" transform="translate(-589.523 -351.094)" fill="#6c63ff"/>
    <path id="Path_1768" data-name="Path 1768" d="M625.623,411.435h-1.7a.2.2,0,0,0-.2.2v1.7a.2.2,0,0,0,.2.2h1.7a.2.2,0,0,0,.2-.2v-1.7A.2.2,0,0,0,625.623,411.435Z" transform="translate(-589.523 -386.153)" fill="#e6e6e6"/>
    <path id="Path_1769" data-name="Path 1769" d="M672.383,259.635h-1.7a.2.2,0,0,0-.2.2v1.7a.2.2,0,0,0,.2.2h1.7a.2.2,0,0,0,.2-.2v-1.7A.2.2,0,0,0,672.383,259.635Z" transform="translate(-632.72 -245.918)" fill="#6c63ff"/>
    <path id="Path_1770" data-name="Path 1770" d="M672.383,297.585h-1.7a.2.2,0,0,0-.2.2v1.7a.2.2,0,0,0,.2.2h1.7a.2.2,0,0,0,.2-.2v-1.7A.2.2,0,0,0,672.383,297.585Z" transform="translate(-632.72 -280.977)" fill="#6c63ff"/>
    <path id="Path_1771" data-name="Path 1771" d="M672.383,335.535h-1.7a.2.2,0,0,0-.2.2v1.7a.2.2,0,0,0,.2.2h1.7a.2.2,0,0,0,.2-.2v-1.7A.2.2,0,0,0,672.383,335.535Z" transform="translate(-632.72 -316.035)" fill="#e6e6e6"/>
    <path id="Path_1772" data-name="Path 1772" d="M672.383,373.485h-1.7a.2.2,0,0,0-.2.2v1.7a.2.2,0,0,0,.2.2h1.7a.2.2,0,0,0,.2-.2v-1.7A.2.2,0,0,0,672.383,373.485Z" transform="translate(-632.72 -351.094)" fill="#6c63ff"/>
    <path id="Path_1773" data-name="Path 1773" d="M672.383,411.435h-1.7a.2.2,0,0,0-.2.2v1.7a.2.2,0,0,0,.2.2h1.7a.2.2,0,0,0,.2-.2v-1.7A.2.2,0,0,0,672.383,411.435Z" transform="translate(-632.72 -386.153)" fill="#6c63ff"/>
    <path id="Path_1774" data-name="Path 1774" d="M719.143,259.635h-1.7a.2.2,0,0,0-.2.2v1.7a.2.2,0,0,0,.2.2h1.7a.2.2,0,0,0,.2-.2v-1.7A.2.2,0,0,0,719.143,259.635Z" transform="translate(-675.918 -245.918)" fill="#6c63ff"/>
    <path id="Path_1775" data-name="Path 1775" d="M719.143,297.585h-1.7a.2.2,0,0,0-.2.2v1.7a.2.2,0,0,0,.2.2h1.7a.2.2,0,0,0,.2-.2v-1.7A.2.2,0,0,0,719.143,297.585Z" transform="translate(-675.918 -280.977)" fill="#fff"/>
    <path id="Path_1776" data-name="Path 1776" d="M719.143,335.535h-1.7a.2.2,0,0,0-.2.2v1.7a.2.2,0,0,0,.2.2h1.7a.2.2,0,0,0,.2-.2v-1.7A.2.2,0,0,0,719.143,335.535Z" transform="translate(-675.918 -316.035)" fill="#fff"/>
    <path id="Path_1777" data-name="Path 1777" d="M719.143,373.485h-1.7a.2.2,0,0,0-.2.2v1.7a.2.2,0,0,0,.2.2h1.7a.2.2,0,0,0,.2-.2v-1.7A.2.2,0,0,0,719.143,373.485Z" transform="translate(-675.918 -351.094)" fill="#e6e6e6"/>
    <path id="Path_1778" data-name="Path 1778" d="M719.143,411.435h-1.7a.2.2,0,0,0-.2.2v1.7a.2.2,0,0,0,.2.2h1.7a.2.2,0,0,0,.2-.2v-1.7A.2.2,0,0,0,719.143,411.435Z" transform="translate(-675.918 -386.153)" fill="#6c63ff"/>
    <path id="Path_1779" data-name="Path 1779" d="M765.9,259.635h-1.7a.2.2,0,0,0-.2.2v1.7a.2.2,0,0,0,.2.2h1.7a.2.2,0,0,0,.2-.2v-1.7A.2.2,0,0,0,765.9,259.635Z" transform="translate(-719.115 -245.918)" fill="#fff"/>
    <path id="Path_1780" data-name="Path 1780" d="M765.9,297.585h-1.7a.2.2,0,0,0-.2.2v1.7a.2.2,0,0,0,.2.2h1.7a.2.2,0,0,0,.2-.2v-1.7A.2.2,0,0,0,765.9,297.585Z" transform="translate(-719.115 -280.977)" fill="#fff"/>
    <path id="Path_1781" data-name="Path 1781" d="M765.9,335.535h-1.7a.2.2,0,0,0-.2.2v1.7a.2.2,0,0,0,.2.2h1.7a.2.2,0,0,0,.2-.2v-1.7A.2.2,0,0,0,765.9,335.535Z" transform="translate(-719.115 -316.035)" fill="#fff"/>
    <path id="Path_1782" data-name="Path 1782" d="M765.9,373.485h-1.7a.2.2,0,0,0-.2.2v1.7a.2.2,0,0,0,.2.2h1.7a.2.2,0,0,0,.2-.2v-1.7A.2.2,0,0,0,765.9,373.485Z" transform="translate(-719.115 -351.094)" fill="#6c63ff"/>
    <path id="Path_1783" data-name="Path 1783" d="M765.9,411.435h-1.7a.2.2,0,0,0-.2.2v1.7a.2.2,0,0,0,.2.2h1.7a.2.2,0,0,0,.2-.2v-1.7A.2.2,0,0,0,765.9,411.435Z" transform="translate(-719.115 -386.153)" fill="#e6e6e6"/>
    <path id="Path_1784" data-name="Path 1784" d="M812.663,259.635h-1.7a.2.2,0,0,0-.2.2v1.7a.2.2,0,0,0,.2.2h1.7a.2.2,0,0,0,.2-.2v-1.7A.2.2,0,0,0,812.663,259.635Z" transform="translate(-762.313 -245.918)" fill="#fff"/>
    <path id="Path_1785" data-name="Path 1785" d="M812.663,297.585h-1.7a.2.2,0,0,0-.2.2v1.7a.2.2,0,0,0,.2.2h1.7a.2.2,0,0,0,.2-.2v-1.7A.2.2,0,0,0,812.663,297.585Z" transform="translate(-762.313 -280.977)" fill="#fff"/>
    <path id="Path_1786" data-name="Path 1786" d="M812.663,335.535h-1.7a.2.2,0,0,0-.2.2v1.7a.2.2,0,0,0,.2.2h1.7a.2.2,0,0,0,.2-.2v-1.7A.2.2,0,0,0,812.663,335.535Z" transform="translate(-762.313 -316.035)" fill="#6c63ff"/>
    <path id="Path_1787" data-name="Path 1787" d="M812.663,373.485h-1.7a.2.2,0,0,0-.2.2v1.7a.2.2,0,0,0,.2.2h1.7a.2.2,0,0,0,.2-.2v-1.7A.2.2,0,0,0,812.663,373.485Z" transform="translate(-762.313 -351.094)" fill="#e6e6e6"/>
    <path id="Path_1788" data-name="Path 1788" d="M812.663,411.435h-1.7a.2.2,0,0,0-.2.2v1.7a.2.2,0,0,0,.2.2h1.7a.2.2,0,0,0,.2-.2v-1.7A.2.2,0,0,0,812.663,411.435Z" transform="translate(-762.313 -386.153)" fill="#fff"/>
    <path id="Path_1789" data-name="Path 1789" d="M859.423,259.635h-1.7a.2.2,0,0,0-.2.2v1.7a.2.2,0,0,0,.2.2h1.7a.2.2,0,0,0,.2-.2v-1.7A.2.2,0,0,0,859.423,259.635Z" transform="translate(-805.511 -245.918)" fill="#6c63ff"/>
    <path id="Path_1790" data-name="Path 1790" d="M859.423,297.585h-1.7a.2.2,0,0,0-.2.2v1.7a.2.2,0,0,0,.2.2h1.7a.2.2,0,0,0,.2-.2v-1.7A.2.2,0,0,0,859.423,297.585Z" transform="translate(-805.511 -280.977)" fill="#6c63ff"/>
    <path id="Path_1791" data-name="Path 1791" d="M859.423,335.535h-1.7a.2.2,0,0,0-.2.2v1.7a.2.2,0,0,0,.2.2h1.7a.2.2,0,0,0,.2-.2v-1.7A.2.2,0,0,0,859.423,335.535Z" transform="translate(-805.511 -316.035)" fill="#e6e6e6"/>
    <path id="Path_1792" data-name="Path 1792" d="M859.423,373.485h-1.7a.2.2,0,0,0-.2.2v1.7a.2.2,0,0,0,.2.2h1.7a.2.2,0,0,0,.2-.2v-1.7A.2.2,0,0,0,859.423,373.485Z" transform="translate(-805.511 -351.094)" fill="#fff"/>
    <path id="Path_1793" data-name="Path 1793" d="M859.423,411.435h-1.7a.2.2,0,0,0-.2.2v1.7a.2.2,0,0,0,.2.2h1.7a.2.2,0,0,0,.2-.2v-1.7A.2.2,0,0,0,859.423,411.435Z" transform="translate(-805.511 -386.153)" fill="#6c63ff"/>
    <path id="Path_1794" data-name="Path 1794" d="M906.183,259.635h-1.7a.2.2,0,0,0-.2.2v1.7a.2.2,0,0,0,.2.2h1.7a.2.2,0,0,0,.2-.2v-1.7A.2.2,0,0,0,906.183,259.635Z" transform="translate(-848.708 -245.918)" fill="#6c63ff"/>
    <path id="Path_1795" data-name="Path 1795" d="M906.183,297.585h-1.7a.2.2,0,0,0-.2.2v1.7a.2.2,0,0,0,.2.2h1.7a.2.2,0,0,0,.2-.2v-1.7A.2.2,0,0,0,906.183,297.585Z" transform="translate(-848.708 -280.977)" fill="#6c63ff"/>
    <path id="Path_1796" data-name="Path 1796" d="M906.183,335.535h-1.7a.2.2,0,0,0-.2.2v1.7a.2.2,0,0,0,.2.2h1.7a.2.2,0,0,0,.2-.2v-1.7a.2.2,0,0,0-.2-.2Z" transform="translate(-848.708 -316.035)" fill="#e6e6e6"/>
    <path id="Path_1797" data-name="Path 1797" d="M906.183,373.485h-1.7a.2.2,0,0,0-.2.2v1.7a.2.2,0,0,0,.2.2h1.7a.2.2,0,0,0,.2-.2v-1.7A.2.2,0,0,0,906.183,373.485Z" transform="translate(-848.708 -351.094)" fill="#6c63ff"/>
    <path id="Path_1798" data-name="Path 1798" d="M906.183,411.435h-1.7a.2.2,0,0,0-.2.2v1.7a.2.2,0,0,0,.2.2h1.7a.2.2,0,0,0,.2-.2v-1.7A.2.2,0,0,0,906.183,411.435Z" transform="translate(-848.708 -386.153)" fill="#6c63ff"/>
    <path id="Path_1799" data-name="Path 1799" d="M952.943,259.635h-1.7a.2.2,0,0,0-.2.2v1.7a.2.2,0,0,0,.2.2h1.7a.2.2,0,0,0,.2-.2v-1.7A.2.2,0,0,0,952.943,259.635Z" transform="translate(-891.906 -245.918)" fill="#e6e6e6"/>
    <path id="Path_1800" data-name="Path 1800" d="M952.943,297.585h-1.7a.2.2,0,0,0-.2.2v1.7a.2.2,0,0,0,.2.2h1.7a.2.2,0,0,0,.2-.2v-1.7A.2.2,0,0,0,952.943,297.585Z" transform="translate(-891.906 -280.977)" fill="#6c63ff"/>
    <path id="Path_1801" data-name="Path 1801" d="M952.943,335.535h-1.7a.2.2,0,0,0-.2.2v1.7a.2.2,0,0,0,.2.2h1.7a.2.2,0,0,0,.2-.2v-1.7a.2.2,0,0,0-.2-.2Z" transform="translate(-891.906 -316.035)" fill="#6c63ff"/>
    <path id="Path_1802" data-name="Path 1802" d="M952.943,373.485h-1.7a.2.2,0,0,0-.2.2v1.7a.2.2,0,0,0,.2.2h1.7a.2.2,0,0,0,.2-.2v-1.7A.2.2,0,0,0,952.943,373.485Z" transform="translate(-891.906 -351.094)" fill="#6c63ff"/>
    <path id="Path_1803" data-name="Path 1803" d="M952.943,411.435h-1.7a.2.2,0,0,0-.2.2v1.7a.2.2,0,0,0,.2.2h1.7a.2.2,0,0,0,.2-.2v-1.7A.2.2,0,0,0,952.943,411.435Z" transform="translate(-891.906 -386.153)" fill="#e6e6e6"/>
    <path id="Path_1804" data-name="Path 1804" d="M999.7,259.635h-1.7a.2.2,0,0,0-.2.2v1.7a.2.2,0,0,0,.2.2h1.7a.2.2,0,0,0,.2-.2v-1.7A.2.2,0,0,0,999.7,259.635Z" transform="translate(-935.104 -245.918)" fill="#e6e6e6"/>
    <path id="Path_1805" data-name="Path 1805" d="M999.7,297.585h-1.7a.2.2,0,0,0-.2.2v1.7a.2.2,0,0,0,.2.2h1.7a.2.2,0,0,0,.2-.2v-1.7A.2.2,0,0,0,999.7,297.585Z" transform="translate(-935.104 -280.977)" fill="#e6e6e6"/>
    <path id="Path_1806" data-name="Path 1806" d="M999.7,335.535h-1.7a.2.2,0,0,0-.2.2v1.7a.2.2,0,0,0,.2.2h1.7a.2.2,0,0,0,.2-.2v-1.7a.2.2,0,0,0-.2-.2Z" transform="translate(-935.104 -316.035)" fill="#6c63ff"/>
    <path id="Path_1807" data-name="Path 1807" d="M999.7,373.485h-1.7a.2.2,0,0,0-.2.2v1.7a.2.2,0,0,0,.2.2h1.7a.2.2,0,0,0,.2-.2v-1.7A.2.2,0,0,0,999.7,373.485Z" transform="translate(-935.104 -351.094)" fill="#e6e6e6"/>
    <path id="Path_1808" data-name="Path 1808" d="M999.7,411.435h-1.7a.2.2,0,0,0-.2.2v1.7a.2.2,0,0,0,.2.2h1.7a.2.2,0,0,0,.2-.2v-1.7A.2.2,0,0,0,999.7,411.435Z" transform="translate(-935.104 -386.153)" fill="#e6e6e6"/>
    <path id="Path_1809" data-name="Path 1809" d="M335.522,659.986h-.047l.04-.005Z" transform="translate(-309.917 -609.701)" fill="#2f2e41"/>
    <circle id="ab6171fa-7d69-4734-b81c-8dff60f9761b" cx="5.205" cy="5.205" r="5.205" transform="translate(16.341 8.259)" fill="#ffb6b6"/>
    <path id="bf427902-b9bf-4946-b5d7-5c1c7e04535e" d="M387.5,157.643s1.361-2.6-1.634-2.839c0,0-2.553-2.316-5.156-.423a2.614,2.614,0,0,0-2.2,1.606.974.974,0,0,0-1.362.71,7.4,7.4,0,0,0,0,4.5,8.8,8.8,0,0,0,1.088,2.366s-1.342-4.464,1.925-4.7,6.924-2.279,7.2.324a8.994,8.994,0,0,0,.682,3.244S390.635,158.708,387.5,157.643Z" transform="translate(-361.399 -147.995)" fill="#2f2e41"/>
    <path id="Path_1810" data-name="Path 1810" d="M360.6,354.771l-.017.088-.188.993-1.3,6.872-.077.4-.161.856-.221,1.167-.49,2.586-.14.741-.053.278-.018.1-.146.767-.044.232-.355,2.631-.31,2.292,1.038,1.038-.619.619-.406,2.326v.005H340.52q-1.006-.651-1.982-1.343l.136-1.021s.469-1.823.272-2.041-.628-.607-.628-.607l.543-1.268.075-.176-.126-2.623,0-.063-.042-.865-.005-.111-.008-.167-.161-3.328,0-.055-.049-1.009-.046-.959-.02-.4-.2-4.048-.133-2.749-.116-2.393.466-.158,4.979-1.692L345.535,349l4.292.032,2.1.016,3.506,3.252.8.381.006,0,.572.273,1.451.693,1.534.733.787.376Z" transform="translate(-325.588 -328.479)" fill="#cacaca"/>
    <path id="Path_1811" data-name="Path 1811" d="M307.833,563.739a2.307,2.307,0,0,1-3.1-1.709l-8.118-1.152,2.822-3.192,7.276,1.583a2.32,2.32,0,0,1,1.118,4.47Z" transform="translate(-287.331 -521.262)" fill="#ffb6b6"/>
    <path id="Path_1812" data-name="Path 1812" d="M246.629,402.952a1.03,1.03,0,0,0-.6-.371l-3.331-.693-.342-.071a1.442,1.442,0,0,1-.955-.691,1.46,1.46,0,0,1-.187-.6,1.44,1.44,0,0,1,.068-.57l1.154-3.478.749-2.257a3.185,3.185,0,0,0,.159-.842,3.3,3.3,0,0,0-.691-2.2,3.253,3.253,0,0,0-3.734-1.039l-.058.022a3.244,3.244,0,0,0-1.928,2.164l-.814,2.96-1.678,6.1a4.4,4.4,0,0,0,3.73,5.537l4.8.562,2.22.261a1.028,1.028,0,0,0,1.131-.817.377.377,0,0,0,.008-.042l.053-.329.452-2.772,0-.028A1.027,1.027,0,0,0,246.629,402.952Z" transform="translate(-229.746 -366.279)" fill="#cacaca"/>
    <path id="Path_1813" data-name="Path 1813" d="M489.766,551.285a2.307,2.307,0,0,0,2.826-2.129l7.875-2.285-3.244-2.762-6.98,2.593a2.32,2.32,0,0,0-.476,4.583Z" transform="translate(-464.093 -508.72)" fill="#ffb6b6"/>
    <path id="Path_1814" data-name="Path 1814" d="M558.15,384.884l-3.745-8.619a3.262,3.262,0,0,0-1.544-1.627,3.3,3.3,0,0,0-.669-.244c-.036-.009-.072-.018-.107-.024a3.209,3.209,0,0,0-1.484.027,3.262,3.262,0,0,0-2.083,1.655l-.006.011a3.283,3.283,0,0,0-.028,2.96l.047.093,2.647,5.315a1.44,1.44,0,0,1-.8,2l-.186.067-3.343,1.207a1.028,1.028,0,0,0-.635,1.279l.008.027.937,3c0,.014.009.027.014.041a.541.541,0,0,0,.03.075,1.027,1.027,0,0,0,1.2.574l1.8-.476.368-.1,4.659-1.23a4.4,4.4,0,0,0,2.912-6.008Z" transform="translate(-517.868 -351.844)" fill="#cacaca"/>
    <path id="Path_1815" data-name="Path 1815" d="M219.629,608.285a39.169,39.169,0,0,0,3.485,3.727h34.433a1.253,1.253,0,0,1,1.251,1.252l.049,8.725a27.075,27.075,0,0,0,5.9-3.7q.75-.616,1.453-1.285.461-.436.9-.894a27.092,27.092,0,0,0,5.243-7.827Z" transform="translate(-216.208 -568.006)" fill="#3f3d56"/>
    <path id="Path_1816" data-name="Path 1816" d="M742.978,711.025q-.438.458-.9.894h-7.33v-.894Z" transform="translate(-692.085 -662.919)" fill="#fff"/>
    <path id="Path_1817" data-name="Path 1817" d="M320.9,332.856a.422.422,0,0,0-.371-.221H295.551a.423.423,0,0,0-.422.423v14.949H320.95V333.058A.41.41,0,0,0,320.9,332.856Z" transform="translate(-285.957 -313.356)" fill="#3f3d56"/>
    <path id="Path_1818" data-name="Path 1818" d="M294.832,529.092v1.845a.582.582,0,0,0,.582.582h9.53v3.641h-.127a.076.076,0,0,0-.076.076v.253a.076.076,0,0,0,.076.076h5.916a.076.076,0,0,0,.076-.076v-.253a.076.076,0,0,0-.076-.076h-.127v-3.641h9.53a.582.582,0,0,0,.582-.582v-1.845Z" transform="translate(-285.682 -494.846)" fill="#3f3d56"/>
    <circle id="Ellipse_90" data-name="Ellipse 90" cx="2.385" cy="2.385" r="2.385" transform="translate(19.396 24.181)" fill="#6c63ff"/>
    <path id="Path_1819" data-name="Path 1819" d="M386.122,181.591h-.381c0-2.88-2.85-4.767-5.725-4.768a6.277,6.277,0,0,0-1.246.121c-.462.092-.941.2-1.412.347-1.857.569-3.578,1.669-3.578,4.3a5.987,5.987,0,0,0,.193,1.515l-.369.1a6.391,6.391,0,0,1-.206-1.611,5.166,5.166,0,0,1,2.574-4.82,8.318,8.318,0,0,1,3.1-.97,7.4,7.4,0,0,1,1.5-.046A5.784,5.784,0,0,1,386.122,181.591Z" transform="translate(-358.264 -168.411)" fill="#6c63ff"/>
    <path id="Path_1820" data-name="Path 1820" d="M521.892,229.191l-.15-1.109a1.212,1.212,0,0,0-1.39-1.033l-.238.033a.5.5,0,0,0-.43.564l.347,2.555a.5.5,0,0,0,.4.424.468.468,0,0,0,.093.009.5.5,0,0,0,.067,0l.267-.036a1.2,1.2,0,0,0,.818-.49c.021-.029.04-.059.059-.089A1.276,1.276,0,0,0,521.892,229.191Z" transform="translate(-493.399 -215.8)" fill="#6c63ff"/>
    <path id="Path_1821" data-name="Path 1821" d="M519.959,228.275a.489.489,0,0,0-.178.146.5.5,0,0,0-.1.371l.347,2.555a.5.5,0,0,0,.4.424Z" transform="translate(-493.399 -216.947)" fill="#fff"/>
    <path id="Path_1822" data-name="Path 1822" d="M542.29,233.073l-.15-1.109a1.2,1.2,0,0,0-.381-.728l.345,2.542a.469.469,0,0,0,.031.119A1.276,1.276,0,0,0,542.29,233.073Z" transform="translate(-513.797 -219.681)" fill="#3f3d56"/>
    <ellipse id="Ellipse_91" data-name="Ellipse 91" cx="0.19" cy="0.533" rx="0.19" ry="0.533" transform="translate(26.974 13.159) rotate(-7.726)" fill="#3f3d56"/>
    <ellipse id="Ellipse_92" data-name="Ellipse 92" cx="0.19" cy="0.533" rx="0.19" ry="0.533" transform="translate(26.746 11.788) rotate(-7.726)" fill="#3f3d56"/>
    <ellipse id="Ellipse_93" data-name="Ellipse 93" cx="0.19" cy="0.533" rx="0.19" ry="0.533" transform="translate(28.193 12.321) rotate(-7.726)" fill="#3f3d56"/>
    <path id="Path_1823" data-name="Path 1823" d="M411.231,176.823a6.274,6.274,0,0,0-1.246.121c-.462.092-.941.2-1.412.347-.735-.036-1.276-.226-1.385-.52a8.318,8.318,0,0,1,3.1-.97,7.4,7.4,0,0,1,1.5-.046.437.437,0,0,1,.207.291C412.038,176.312,411.736,176.594,411.231,176.823Z" transform="translate(-389.479 -168.411)" fill="#3f3d56"/>
    <path id="Path_1824" data-name="Path 1824" d="M369.282,253.436,368.7,251a.459.459,0,0,0-.372-.347.513.513,0,0,0-.076-.006.458.458,0,0,0-.107.013l-.227.055a1.135,1.135,0,0,0-.837,1.368l.263,1.094a1.208,1.208,0,0,0,.407.657,1.076,1.076,0,0,0,.1.074,1.128,1.128,0,0,0,.866.14l.226-.055a.445.445,0,0,0,.165-.077A.457.457,0,0,0,369.282,253.436Z" transform="translate(-352.394 -237.613)" fill="#6c63ff"/>
    <ellipse id="Ellipse_94" data-name="Ellipse 94" cx="0.19" cy="0.533" rx="0.19" ry="0.533" transform="translate(15.224 14.378) rotate(-13.53)" fill="#3f3d56"/>
    <ellipse id="Ellipse_95" data-name="Ellipse 95" cx="0.19" cy="0.533" rx="0.19" ry="0.533" transform="translate(14.462 14.606) rotate(-13.53)" fill="#3f3d56"/>
    <path id="Path_1825" data-name="Path 1825" d="M384.9,253.048l-.587-2.439a.5.5,0,0,0-.4-.375l.8,3.331A.5.5,0,0,0,384.9,253.048Z" transform="translate(-367.973 -237.234)" fill="#fff"/>
    <path id="Path_1826" data-name="Path 1826" d="M367.2,260.892a.494.494,0,0,0-.089-.187,1.122,1.122,0,0,0-.043.67l.263,1.094a1.207,1.207,0,0,0,.407.657Z" transform="translate(-352.389 -246.906)" fill="#3f3d56"/>
  </g>
</svg>
